<svg xmlns="http://www.w3.org/2000/svg" xmlns:xlink="http://www.w3.org/1999/xlink" width="371" zoomAndPan="magnify" viewBox="0 0 278.25 203.249992" height="271" preserveAspectRatio="xMidYMid meet" version="1.0"><defs><g/><clipPath id="5a9abb620e"><path d="M 0.136719 0 L 118.949219 0 L 118.949219 190.546875 L 0.136719 190.546875 Z M 0.136719 0 " clip-rule="nonzero"/></clipPath><clipPath id="a1c6f6a0a1"><path d="M 217 160 L 245 160 L 245 202.503906 L 217 202.503906 Z M 217 160 " clip-rule="nonzero"/></clipPath></defs><g clip-path="url(#5a9abb620e)"><path fill="#ffffff" d="M 0.140625 154.90625 L 41.84375 154.90625 L 41.84375 64.347656 C 32.90625 68.917969 22.78125 71.496094 12.054688 71.496094 L 0.140625 71.496094 L 0.140625 35.746094 L 12.054688 35.746094 C 28.507812 35.746094 41.84375 22.410156 41.84375 5.957031 L 41.84375 0 L 77.59375 0 L 77.59375 154.90625 L 119.296875 154.90625 L 119.296875 190.652344 L 0.140625 190.652344 Z M 0.140625 154.90625 " fill-opacity="1" fill-rule="nonzero"/></g><g fill="#ffffff" fill-opacity="1"><g transform="translate(130.830573, 189.810373)"><g><path d="M 25.953125 0 L 4.65625 0 L 4.65625 -36.984375 L 25.953125 -36.984375 L 25.953125 -30.5625 L 12.5 -30.5625 L 12.5 -22.4375 L 25.015625 -22.4375 L 25.015625 -16.015625 L 12.5 -16.015625 L 12.5 -6.484375 L 25.953125 -6.484375 Z M 10.734375 -39.9375 L 10.734375 -40.625 C 13.628906 -44 15.609375 -46.535156 16.671875 -48.234375 L 25.328125 -48.234375 L 25.328125 -47.703125 C 24.453125 -46.828125 22.953125 -45.523438 20.828125 -43.796875 C 18.710938 -42.066406 17.054688 -40.78125 15.859375 -39.9375 Z M 10.734375 -39.9375 "/></g></g></g><g fill="#ffffff" fill-opacity="1"><g transform="translate(159.844373, 189.810373)"><g><path d="M 15.96875 -5.640625 C 17.3125 -5.640625 18.929688 -5.9375 20.828125 -6.53125 L 20.828125 -0.78125 C 18.898438 0.0703125 16.535156 0.5 13.734375 0.5 C 10.648438 0.5 8.398438 -0.273438 6.984375 -1.828125 C 5.578125 -3.390625 4.875 -5.734375 4.875 -8.859375 L 4.875 -22.484375 L 1.1875 -22.484375 L 1.1875 -25.75 L 5.4375 -28.328125 L 7.671875 -34.3125 L 12.59375 -34.3125 L 12.59375 -28.28125 L 20.515625 -28.28125 L 20.515625 -22.484375 L 12.59375 -22.484375 L 12.59375 -8.859375 C 12.59375 -7.753906 12.898438 -6.941406 13.515625 -6.421875 C 14.140625 -5.898438 14.957031 -5.640625 15.96875 -5.640625 Z M 15.96875 -5.640625 "/></g></g></g><g fill="#ffffff" fill-opacity="1"><g transform="translate(182.331967, 189.810373)"><g><path d="M 22.015625 0 L 20.515625 -3.84375 L 20.3125 -3.84375 C 19.007812 -2.207031 17.671875 -1.070312 16.296875 -0.4375 C 14.929688 0.1875 13.140625 0.5 10.921875 0.5 C 8.210938 0.5 6.078125 -0.273438 4.515625 -1.828125 C 2.953125 -3.378906 2.171875 -5.585938 2.171875 -8.453125 C 2.171875 -11.453125 3.21875 -13.664062 5.3125 -15.09375 C 7.414062 -16.519531 10.585938 -17.304688 14.828125 -17.453125 L 19.734375 -17.609375 L 19.734375 -18.84375 C 19.734375 -21.71875 18.265625 -23.15625 15.328125 -23.15625 C 13.066406 -23.15625 10.410156 -22.46875 7.359375 -21.09375 L 4.8125 -26.3125 C 8.0625 -28.007812 11.671875 -28.859375 15.640625 -28.859375 C 19.429688 -28.859375 22.335938 -28.03125 24.359375 -26.375 C 26.390625 -24.726562 27.40625 -22.21875 27.40625 -18.84375 L 27.40625 0 Z M 19.734375 -13.109375 L 16.75 -13 C 14.507812 -12.9375 12.835938 -12.53125 11.734375 -11.78125 C 10.640625 -11.039062 10.09375 -9.914062 10.09375 -8.40625 C 10.09375 -6.226562 11.34375 -5.140625 13.84375 -5.140625 C 15.625 -5.140625 17.050781 -5.648438 18.125 -6.671875 C 19.195312 -7.703125 19.734375 -9.070312 19.734375 -10.78125 Z M 19.734375 -13.109375 "/></g></g></g><g clip-path="url(#a1c6f6a0a1)"><g fill="#ffffff" fill-opacity="1"><g transform="translate(213.622352, 189.810373)"><g><path d="M 19.578125 0.5 C 16.253906 0.5 13.648438 -0.703125 11.765625 -3.109375 L 11.359375 -3.109375 C 11.628906 -0.742188 11.765625 0.617188 11.765625 0.984375 L 11.765625 12.453125 L 4.046875 12.453125 L 4.046875 -28.28125 L 10.328125 -28.28125 L 11.40625 -24.609375 L 11.765625 -24.609375 C 13.566406 -27.410156 16.238281 -28.8125 19.78125 -28.8125 C 23.125 -28.8125 25.738281 -27.519531 27.625 -24.9375 C 29.507812 -22.363281 30.453125 -18.78125 30.453125 -14.1875 C 30.453125 -11.175781 30.007812 -8.554688 29.125 -6.328125 C 28.238281 -4.097656 26.976562 -2.398438 25.34375 -1.234375 C 23.707031 -0.078125 21.785156 0.5 19.578125 0.5 Z M 17.296875 -22.640625 C 15.398438 -22.640625 14.007812 -22.050781 13.125 -20.875 C 12.25 -19.707031 11.796875 -17.773438 11.765625 -15.078125 L 11.765625 -14.25 C 11.765625 -11.207031 12.210938 -9.03125 13.109375 -7.71875 C 14.015625 -6.40625 15.445312 -5.75 17.40625 -5.75 C 20.863281 -5.75 22.59375 -8.597656 22.59375 -14.296875 C 22.59375 -17.078125 22.164062 -19.160156 21.3125 -20.546875 C 20.457031 -21.941406 19.117188 -22.640625 17.296875 -22.640625 Z M 17.296875 -22.640625 "/></g></g></g></g><g fill="#ffffff" fill-opacity="1"><g transform="translate(246.405157, 189.810373)"><g><path d="M 15.765625 -23.328125 C 14.128906 -23.328125 12.847656 -22.804688 11.921875 -21.765625 C 10.992188 -20.734375 10.460938 -19.265625 10.328125 -17.359375 L 21.15625 -17.359375 C 21.113281 -19.265625 20.613281 -20.734375 19.65625 -21.765625 C 18.695312 -22.804688 17.398438 -23.328125 15.765625 -23.328125 Z M 16.84375 0.5 C 12.289062 0.5 8.734375 -0.753906 6.171875 -3.265625 C 3.609375 -5.773438 2.328125 -9.332031 2.328125 -13.9375 C 2.328125 -18.675781 3.507812 -22.335938 5.875 -24.921875 C 8.25 -27.515625 11.523438 -28.8125 15.703125 -28.8125 C 19.703125 -28.8125 22.816406 -27.671875 25.046875 -25.390625 C 27.273438 -23.117188 28.390625 -19.976562 28.390625 -15.96875 L 28.390625 -12.21875 L 10.140625 -12.21875 C 10.222656 -10.03125 10.875 -8.316406 12.09375 -7.078125 C 13.3125 -5.847656 15.015625 -5.234375 17.203125 -5.234375 C 18.910156 -5.234375 20.519531 -5.410156 22.03125 -5.765625 C 23.550781 -6.117188 25.140625 -6.6875 26.796875 -7.46875 L 26.796875 -1.5 C 25.441406 -0.820312 23.992188 -0.320312 22.453125 0 C 20.921875 0.332031 19.050781 0.5 16.84375 0.5 Z M 16.84375 0.5 "/></g></g></g></svg>