<svg xmlns="http://www.w3.org/2000/svg" xmlns:xlink="http://www.w3.org/1999/xlink" width="500" zoomAndPan="magnify" viewBox="0 0 375 374.999991" height="500" preserveAspectRatio="xMidYMid meet" version="1.0"><defs><g/><clipPath id="41a3d8f112"><path d="M 35.320312 35.976562 L 339.820312 35.976562 L 339.820312 338.976562 L 35.320312 338.976562 Z M 35.320312 35.976562 " clip-rule="nonzero"/></clipPath><clipPath id="54c182b0c4"><path d="M 187.496094 35.976562 C 103.453125 35.976562 35.320312 103.816406 35.320312 187.5 C 35.320312 271.179688 103.453125 339.019531 187.496094 339.019531 C 271.539062 339.019531 339.667969 271.179688 339.667969 187.5 C 339.667969 103.816406 271.539062 35.976562 187.496094 35.976562 Z M 187.496094 35.976562 " clip-rule="nonzero"/></clipPath><clipPath id="7f0a5b9fa3"><path d="M 73.472656 223.023438 L 170.972656 223.023438 L 170.972656 257.8125 L 73.472656 257.8125 Z M 73.472656 223.023438 " clip-rule="nonzero"/></clipPath><clipPath id="019df3e7b3"><path d="M 101 117.132812 L 170.972656 117.132812 L 170.972656 216 L 101 216 Z M 101 117.132812 " clip-rule="nonzero"/></clipPath><clipPath id="ee95412fdd"><path d="M 203.800781 223.023438 L 302.050781 223.023438 L 302.050781 257.8125 L 203.800781 257.8125 Z M 203.800781 223.023438 " clip-rule="nonzero"/></clipPath><clipPath id="de37908dca"><path d="M 203.800781 117.132812 L 275 117.132812 L 275 216 L 203.800781 216 Z M 203.800781 117.132812 " clip-rule="nonzero"/></clipPath><clipPath id="8e8297bfc1"><path d="M 288 288 L 368 288 L 368 367 L 288 367 Z M 288 288 " clip-rule="nonzero"/></clipPath><clipPath id="7097879882"><path d="M 272.625 319.589844 L 320.742188 271.476562 L 368.433594 319.167969 L 320.320312 367.28125 Z M 272.625 319.589844 " clip-rule="nonzero"/></clipPath><clipPath id="c4c8593412"><path d="M 272 271 L 298 271 L 298 298 L 272 298 Z M 272 271 " clip-rule="nonzero"/></clipPath><clipPath id="cc5f9a8acb"><path d="M 272.625 319.589844 L 320.742188 271.476562 L 368.433594 319.167969 L 320.320312 367.28125 Z M 272.625 319.589844 " clip-rule="nonzero"/></clipPath><clipPath id="82a2a8a8e6"><path d="M 311.605469 307.050781 L 368 307.050781 L 368 367 L 311.605469 367 Z M 311.605469 307.050781 " clip-rule="nonzero"/></clipPath><clipPath id="ea76491e4c"><path d="M 7 287 L 86 287 L 86 367 L 7 367 Z M 7 287 " clip-rule="nonzero"/></clipPath><clipPath id="767cb68574"><path d="M 54.378906 271.644531 L 102.496094 319.757812 L 54.800781 367.449219 L 6.6875 319.335938 Z M 54.378906 271.644531 " clip-rule="nonzero"/></clipPath><clipPath id="e5da315958"><path d="M 76 271 L 103 271 L 103 298 L 76 298 Z M 76 271 " clip-rule="nonzero"/></clipPath><clipPath id="da8ec57e8d"><path d="M 54.378906 271.644531 L 102.496094 319.757812 L 54.800781 367.449219 L 6.6875 319.335938 Z M 54.378906 271.644531 " clip-rule="nonzero"/></clipPath><clipPath id="ce2f64f414"><path d="M 7 310.621094 L 66.917969 310.621094 L 66.917969 367 L 7 367 Z M 7 310.621094 " clip-rule="nonzero"/></clipPath><clipPath id="53a7a3de5f"><path d="M 297.34375 78 L 298 78 L 298 78.453125 L 297.34375 78.453125 Z M 297.34375 78 " clip-rule="nonzero"/></clipPath><clipPath id="e7a5867b06"><path d="M 297.34375 13.566406 L 362.59375 13.566406 L 362.59375 78.453125 L 297.34375 78.453125 Z M 297.34375 13.566406 " clip-rule="nonzero"/></clipPath><clipPath id="9b1bd9d33f"><path d="M 79 78 L 80.046875 78 L 80.046875 78.453125 L 79 78.453125 Z M 79 78 " clip-rule="nonzero"/></clipPath><clipPath id="84b915ee88"><path d="M 15.160156 13.203125 L 80.046875 13.203125 L 80.046875 78.453125 L 15.160156 78.453125 Z M 15.160156 13.203125 " clip-rule="nonzero"/></clipPath><clipPath id="1687f7f946"><path d="M 49 114 L 90 114 L 90 207 L 49 207 Z M 49 114 " clip-rule="nonzero"/></clipPath><clipPath id="2bc9adf7bc"><path d="M 36.207031 124.003906 L 84.578125 113.496094 L 103.839844 202.179688 L 55.464844 212.683594 Z M 36.207031 124.003906 " clip-rule="nonzero"/></clipPath><clipPath id="a2aa1a6290"><path d="M 36.207031 124.003906 L 84.578125 113.496094 L 103.839844 202.179688 L 55.464844 212.683594 Z M 36.207031 124.003906 " clip-rule="nonzero"/></clipPath><clipPath id="6c8d2a3ec1"><path d="M 40.960938 122.96875 L 84.828125 113.445312 L 104.046875 201.941406 L 60.179688 211.46875 Z M 40.960938 122.96875 " clip-rule="nonzero"/></clipPath><clipPath id="64edad2874"><path d="M 46 156 L 79 156 L 79 186 L 46 186 Z M 46 156 " clip-rule="nonzero"/></clipPath><clipPath id="576f89eb77"><path d="M 36.207031 124.003906 L 84.578125 113.496094 L 103.839844 202.179688 L 55.464844 212.683594 Z M 36.207031 124.003906 " clip-rule="nonzero"/></clipPath><clipPath id="a23ac7b95c"><path d="M 36.207031 124.003906 L 84.578125 113.496094 L 103.839844 202.179688 L 55.464844 212.683594 Z M 36.207031 124.003906 " clip-rule="nonzero"/></clipPath><clipPath id="222fea1dc8"><path d="M 65 130 L 89 130 L 89 169 L 65 169 Z M 65 130 " clip-rule="nonzero"/></clipPath><clipPath id="3890836d49"><path d="M 36.207031 124.003906 L 84.578125 113.496094 L 103.839844 202.179688 L 55.464844 212.683594 Z M 36.207031 124.003906 " clip-rule="nonzero"/></clipPath><clipPath id="ebf3099ab8"><path d="M 36.207031 124.003906 L 84.578125 113.496094 L 103.839844 202.179688 L 55.464844 212.683594 Z M 36.207031 124.003906 " clip-rule="nonzero"/></clipPath><clipPath id="1e414ba417"><path d="M 60.269531 136.332031 L 88.46875 130.207031 L 95.75 163.738281 L 67.550781 169.863281 Z M 60.269531 136.332031 " clip-rule="nonzero"/></clipPath><clipPath id="dec0dc2eba"><path d="M 216.375 67.886719 L 268 67.886719 L 268 119.636719 L 216.375 119.636719 Z M 216.375 67.886719 " clip-rule="nonzero"/></clipPath><clipPath id="25d0ace600"><path d="M 279.929688 135.945312 L 331.679688 135.945312 L 331.679688 187.695312 L 279.929688 187.695312 Z M 279.929688 135.945312 " clip-rule="nonzero"/></clipPath></defs><g clip-path="url(#41a3d8f112)"><g clip-path="url(#54c182b0c4)"><path stroke-linecap="butt" transform="matrix(0.75, 0, 0, 0.75, 35.322256, 35.97789)" fill="none" stroke-linejoin="miter" d="M 202.898477 -0.00176941 C 90.841171 -0.00176941 -0.00259083 90.451367 -0.00259083 202.029507 C -0.00259083 313.602438 90.841171 404.055575 202.898477 404.055575 C 314.955783 404.055575 405.794337 313.602438 405.794337 202.029507 C 405.794337 90.451367 314.955783 -0.00176941 202.898477 -0.00176941 Z M 202.898477 -0.00176941 " stroke="#ffffff" stroke-width="22" stroke-opacity="1" stroke-miterlimit="4"/></g></g><g clip-path="url(#7f0a5b9fa3)"><path fill="#ffffff" d="M 209.304688 248.957031 L 148.472656 248.957031 C 148.054688 248.957031 147.785156 248.515625 147.976562 248.144531 L 152.660156 239.128906 C 152.753906 238.945312 152.945312 238.828125 153.152344 238.828125 L 204.625 238.828125 C 204.832031 238.828125 205.023438 238.945312 205.117188 239.128906 L 209.800781 248.144531 C 209.992188 248.515625 209.726562 248.957031 209.304688 248.957031 Z M 282.960938 249.980469 L 257.769531 224.789062 C 256.910156 223.925781 255.742188 223.445312 254.523438 223.445312 L 103.253906 223.445312 C 102.035156 223.445312 100.871094 223.925781 100.007812 224.789062 L 74.816406 249.980469 C 73.957031 250.839844 73.472656 252.007812 73.472656 253.222656 C 73.472656 255.757812 75.527344 257.8125 78.058594 257.8125 L 279.71875 257.8125 C 282.25 257.8125 284.304688 255.757812 284.304688 253.222656 C 284.304688 252.007812 283.824219 250.839844 282.960938 249.980469 " fill-opacity="1" fill-rule="nonzero"/></g><g clip-path="url(#019df3e7b3)"><path fill="#ffffff" d="M 248.886719 117.183594 L 108.894531 117.183594 C 104.84375 117.183594 101.527344 120.5 101.527344 124.546875 L 101.527344 207.664062 C 101.527344 211.710938 104.84375 215.027344 108.894531 215.027344 L 248.886719 215.027344 C 252.933594 215.027344 256.25 211.710938 256.25 207.664062 L 256.25 124.546875 C 256.25 120.5 252.933594 117.183594 248.886719 117.183594 Z M 247.726562 125.707031 L 247.726562 206.503906 L 110.050781 206.503906 L 110.050781 125.707031 L 247.726562 125.707031 " fill-opacity="1" fill-rule="nonzero"/></g><g clip-path="url(#ee95412fdd)"><path fill="#ffffff" d="M 227.390625 248.957031 L 166.554688 248.957031 C 166.136719 248.957031 165.871094 248.515625 166.0625 248.144531 L 170.746094 239.128906 C 170.839844 238.945312 171.03125 238.828125 171.238281 238.828125 L 222.707031 238.828125 C 222.914062 238.828125 223.105469 238.945312 223.203125 239.128906 L 227.886719 248.144531 C 228.078125 248.515625 227.808594 248.957031 227.390625 248.957031 Z M 301.046875 249.980469 L 275.851562 224.789062 C 274.992188 223.925781 273.828125 223.445312 272.609375 223.445312 L 121.335938 223.445312 C 120.121094 223.445312 118.953125 223.925781 118.09375 224.789062 L 92.902344 249.980469 C 92.039062 250.839844 91.558594 252.007812 91.558594 253.222656 C 91.558594 255.757812 93.613281 257.8125 96.144531 257.8125 L 297.800781 257.8125 C 300.335938 257.8125 302.390625 255.757812 302.390625 253.222656 C 302.390625 252.007812 301.90625 250.839844 301.046875 249.980469 " fill-opacity="1" fill-rule="nonzero"/></g><g clip-path="url(#de37908dca)"><path fill="#ffffff" d="M 266.96875 117.183594 L 126.976562 117.183594 C 122.925781 117.183594 119.613281 120.5 119.613281 124.546875 L 119.613281 207.664062 C 119.613281 211.710938 122.925781 215.027344 126.976562 215.027344 L 266.96875 215.027344 C 271.019531 215.027344 274.335938 211.710938 274.335938 207.664062 L 274.335938 124.546875 C 274.335938 120.5 271.019531 117.183594 266.96875 117.183594 Z M 265.808594 125.707031 L 265.808594 206.503906 L 128.136719 206.503906 L 128.136719 125.707031 L 265.808594 125.707031 " fill-opacity="1" fill-rule="nonzero"/></g><path stroke-linecap="round" transform="matrix(0, 0.75, -0.75, 0, 192.371404, 93.667962)" fill="none" stroke-linejoin="miter" d="M 6.50001 6.500414 L 243.729192 6.500414 " stroke="#ffffff" stroke-width="13" stroke-opacity="1" stroke-miterlimit="4"/><g clip-path="url(#8e8297bfc1)"><g clip-path="url(#7097879882)"><path fill="#ffffff" d="M 345.796875 357.109375 L 318.640625 329.957031 C 317.625 328.929688 317.625 327.28125 318.640625 326.273438 C 319.65625 325.257812 321.304688 325.257812 322.324219 326.273438 L 349.476562 353.429688 C 349.984375 353.9375 350.238281 354.597656 350.238281 355.269531 C 350.238281 355.929688 349.984375 356.601562 349.476562 357.109375 C 348.460938 358.125 346.8125 358.125 345.796875 357.109375 Z M 327 321.59375 C 325.984375 320.578125 325.984375 318.929688 327 317.914062 C 328.007812 316.898438 329.65625 316.898438 330.683594 317.914062 L 357.835938 345.066406 C 358.34375 345.578125 358.597656 346.246094 358.597656 346.910156 C 358.597656 347.582031 358.34375 348.242188 357.835938 348.75 C 356.820312 349.765625 355.171875 349.765625 354.15625 348.75 Z M 364.589844 355.503906 C 368.179688 351.914062 368.179688 346.085938 364.589844 342.496094 L 330.917969 308.78125 C 330.773438 308.660156 330.488281 308.75 330.347656 308.84375 C 325.882812 311.382812 320.226562 310.621094 316.566406 306.992188 C 312.914062 303.351562 312.152344 297.683594 314.683594 293.199219 C 314.804688 292.957031 314.816406 292.722656 314.753906 292.652344 L 310.28125 288.15625 C 310.160156 288.035156 309.914062 288.035156 309.773438 288.164062 L 288.894531 309.046875 C 288.761719 309.1875 288.761719 309.433594 288.894531 309.5625 L 293.347656 313.988281 C 293.449219 314.089844 293.691406 314.078125 293.925781 313.949219 C 298.402344 311.425781 304.066406 312.1875 307.707031 315.828125 C 311.347656 319.5 312.113281 325.15625 309.578125 329.589844 C 309.519531 329.699219 309.457031 329.84375 309.457031 329.984375 C 309.457031 330.066406 309.476562 330.148438 309.539062 330.210938 L 343.222656 363.863281 C 346.8125 367.453125 352.640625 367.453125 356.230469 363.863281 L 364.589844 355.503906 " fill-opacity="1" fill-rule="nonzero"/></g></g><g clip-path="url(#c4c8593412)"><g clip-path="url(#cc5f9a8acb)"><path fill="#ffffff" d="M 248.730469 243.324219 C 247.632812 242.226562 246.898438 240.855469 246.59375 239.328125 L 245.332031 233.003906 C 245.152344 232.097656 244.570312 231.285156 243.757812 230.785156 L 227.121094 220.820312 C 226.964844 220.726562 226.804688 220.746094 226.683594 220.859375 L 221.585938 225.953125 C 221.476562 226.078125 221.453125 226.238281 221.535156 226.382812 L 231.523438 243.070312 C 232.011719 243.84375 232.824219 244.425781 233.75 244.605469 L 240.054688 245.867188 C 241.582031 246.171875 242.953125 246.90625 244.050781 248.003906 L 293.316406 297.269531 L 297.996094 292.589844 L 248.730469 243.324219 " fill-opacity="1" fill-rule="nonzero"/></g></g><g clip-path="url(#82a2a8a8e6)"><path fill="#ffffff" d="M 346.222656 357.304688 L 319.585938 330.664062 C 318.585938 329.65625 318.585938 328.042969 319.585938 327.054688 C 320.582031 326.054688 322.199219 326.054688 323.195312 327.054688 L 349.832031 353.691406 C 350.332031 354.191406 350.582031 354.839844 350.582031 355.496094 C 350.582031 356.144531 350.332031 356.804688 349.832031 357.304688 C 348.835938 358.300781 347.21875 358.300781 346.222656 357.304688 Z M 327.785156 322.464844 C 326.789062 321.46875 326.789062 319.851562 327.785156 318.855469 C 328.773438 317.855469 330.390625 317.855469 331.398438 318.855469 L 358.035156 345.492188 C 358.53125 345.988281 358.78125 346.648438 358.78125 347.296875 C 358.78125 347.953125 358.53125 348.601562 358.035156 349.101562 C 357.035156 350.101562 355.417969 350.101562 354.421875 349.101562 Z M 364.65625 355.726562 C 368.179688 352.203125 368.179688 346.488281 364.65625 342.964844 L 331.625 309.894531 C 331.484375 309.773438 331.207031 309.863281 331.066406 309.953125 C 326.6875 312.449219 321.140625 311.699219 317.550781 308.140625 C 313.96875 304.566406 313.21875 299.011719 315.703125 294.609375 C 315.824219 294.371094 315.832031 294.140625 315.773438 294.070312 L 311.382812 289.664062 C 311.265625 289.542969 311.023438 289.542969 310.886719 289.671875 L 290.402344 310.152344 C 290.273438 310.292969 290.273438 310.535156 290.402344 310.664062 L 294.773438 315.003906 C 294.871094 315.101562 295.113281 315.09375 295.339844 314.960938 C 299.730469 312.488281 305.289062 313.238281 308.859375 316.808594 C 312.429688 320.410156 313.179688 325.957031 310.695312 330.304688 C 310.636719 330.417969 310.574219 330.554688 310.574219 330.695312 C 310.574219 330.777344 310.59375 330.855469 310.65625 330.914062 L 343.699219 363.925781 C 347.21875 367.449219 352.9375 367.449219 356.457031 363.925781 L 364.65625 355.726562 " fill-opacity="1" fill-rule="nonzero"/></g><g clip-path="url(#ea76491e4c)"><g clip-path="url(#767cb68574)"><path fill="#ffffff" d="M 16.859375 344.8125 L 44.015625 317.65625 C 45.042969 316.640625 46.6875 316.640625 47.695312 317.65625 C 48.714844 318.675781 48.714844 320.320312 47.695312 321.339844 L 20.542969 348.492188 C 20.03125 349.003906 19.371094 349.257812 18.699219 349.257812 C 18.039062 349.257812 17.367188 349.003906 16.859375 348.492188 C 15.84375 347.476562 15.84375 345.828125 16.859375 344.8125 Z M 52.375 326.015625 C 53.390625 325 55.039062 325 56.054688 326.015625 C 57.074219 327.023438 57.074219 328.671875 56.054688 329.699219 L 28.902344 356.851562 C 28.394531 357.363281 27.722656 357.617188 27.0625 357.617188 C 26.390625 357.617188 25.726562 357.363281 25.21875 356.851562 C 24.203125 355.835938 24.203125 354.1875 25.21875 353.171875 Z M 18.46875 363.605469 C 22.058594 367.195312 27.882812 367.195312 31.472656 363.605469 L 65.1875 329.933594 C 65.3125 329.789062 65.21875 329.503906 65.128906 329.363281 C 62.585938 324.898438 63.347656 319.242188 66.980469 315.582031 C 70.621094 311.933594 76.285156 311.167969 80.769531 313.703125 C 81.011719 313.824219 81.246094 313.832031 81.320312 313.773438 L 85.8125 309.296875 C 85.9375 309.175781 85.9375 308.929688 85.804688 308.789062 L 64.925781 287.910156 C 64.78125 287.777344 64.539062 287.777344 64.40625 287.910156 L 59.980469 292.363281 C 59.878906 292.464844 59.890625 292.710938 60.023438 292.945312 C 62.542969 297.417969 61.78125 303.082031 58.140625 306.722656 C 54.46875 310.367188 48.816406 311.128906 44.378906 308.597656 C 44.269531 308.535156 44.125 308.472656 43.984375 308.472656 C 43.902344 308.472656 43.820312 308.492188 43.761719 308.554688 L 10.105469 342.238281 C 6.515625 345.828125 6.515625 351.65625 10.105469 355.246094 L 18.46875 363.605469 " fill-opacity="1" fill-rule="nonzero"/></g></g><g clip-path="url(#e5da315958)"><g clip-path="url(#da8ec57e8d)"><path fill="#ffffff" d="M 130.644531 247.746094 C 131.742188 246.648438 133.117188 245.917969 134.640625 245.613281 L 140.96875 244.351562 C 141.871094 244.167969 142.6875 243.589844 143.183594 242.773438 L 153.152344 226.136719 C 153.242188 225.984375 153.222656 225.820312 153.109375 225.699219 L 148.015625 220.601562 C 147.894531 220.492188 147.730469 220.472656 147.585938 220.550781 L 130.898438 230.539062 C 130.125 231.027344 129.546875 231.839844 129.363281 232.765625 L 128.101562 239.074219 C 127.796875 240.597656 127.0625 241.972656 125.964844 243.070312 L 76.703125 292.332031 L 81.378906 297.011719 L 130.644531 247.746094 " fill-opacity="1" fill-rule="nonzero"/></g></g><g clip-path="url(#ce2f64f414)"><path fill="#ffffff" d="M 16.667969 345.238281 L 43.304688 318.601562 C 44.3125 317.601562 45.929688 317.601562 46.914062 318.601562 C 47.914062 319.597656 47.914062 321.214844 46.914062 322.210938 L 20.277344 348.851562 C 19.78125 349.347656 19.132812 349.597656 18.472656 349.597656 C 17.824219 349.597656 17.164062 349.347656 16.667969 348.851562 C 15.667969 347.851562 15.667969 346.234375 16.667969 345.238281 Z M 51.503906 326.800781 C 52.503906 325.804688 54.117188 325.804688 55.117188 326.800781 C 56.113281 327.789062 56.113281 329.40625 55.117188 330.414062 L 28.480469 357.050781 C 27.980469 357.550781 27.320312 357.796875 26.671875 357.796875 C 26.015625 357.796875 25.367188 357.550781 24.867188 357.050781 C 23.871094 356.050781 23.871094 354.4375 24.867188 353.4375 Z M 18.242188 363.675781 C 21.765625 367.195312 27.480469 367.195312 31.003906 363.675781 L 64.074219 330.644531 C 64.195312 330.503906 64.105469 330.222656 64.015625 330.085938 C 61.519531 325.703125 62.269531 320.15625 65.832031 316.566406 C 69.402344 312.984375 74.960938 312.234375 79.359375 314.71875 C 79.597656 314.839844 79.828125 314.851562 79.898438 314.789062 L 84.308594 310.402344 C 84.425781 310.28125 84.425781 310.042969 84.296875 309.902344 L 63.816406 289.421875 C 63.675781 289.289062 63.4375 289.289062 63.308594 289.421875 L 58.96875 293.789062 C 58.867188 293.890625 58.878906 294.128906 59.007812 294.359375 C 61.480469 298.75 60.734375 304.304688 57.160156 307.875 C 53.558594 311.449219 48.011719 312.195312 43.664062 309.710938 C 43.554688 309.652344 43.414062 309.59375 43.273438 309.59375 C 43.195312 309.59375 43.113281 309.613281 43.054688 309.671875 L 10.042969 342.714844 C 6.519531 346.234375 6.519531 351.953125 10.042969 355.472656 L 18.242188 363.675781 " fill-opacity="1" fill-rule="nonzero"/></g><g clip-path="url(#53a7a3de5f)"><path fill="#ffffff" d="M 242.921875 144.71875 L 269.0625 118.578125 C 270.042969 117.589844 270.042969 116.003906 269.0625 115.035156 C 268.085938 114.054688 266.5 114.054688 265.519531 115.035156 L 239.378906 141.175781 C 238.890625 141.664062 238.644531 142.300781 238.644531 142.945312 C 238.644531 143.582031 238.890625 144.230469 239.378906 144.71875 C 240.359375 145.699219 241.945312 145.699219 242.921875 144.71875 Z M 261.015625 110.53125 C 261.996094 109.550781 261.996094 107.964844 261.015625 106.984375 C 260.046875 106.007812 258.460938 106.007812 257.472656 106.984375 L 231.332031 133.128906 C 230.839844 133.617188 230.597656 134.261719 230.597656 134.898438 C 230.597656 135.546875 230.839844 136.183594 231.332031 136.671875 C 232.308594 137.648438 233.894531 137.648438 234.875 136.671875 Z M 224.828125 143.171875 C 221.375 139.714844 221.375 134.105469 224.828125 130.648438 L 257.246094 98.195312 C 257.382812 98.074219 257.65625 98.164062 257.796875 98.253906 C 262.09375 100.699219 267.535156 99.964844 271.0625 96.46875 C 274.578125 92.964844 275.3125 87.511719 272.871094 83.195312 C 272.753906 82.957031 272.746094 82.734375 272.804688 82.664062 L 277.113281 78.335938 C 277.230469 78.21875 277.464844 78.21875 277.601562 78.347656 L 297.703125 98.449219 C 297.828125 98.585938 297.828125 98.820312 297.703125 98.949219 L 293.414062 103.207031 C 293.316406 103.304688 293.082031 103.292969 292.855469 103.167969 C 288.546875 100.738281 283.09375 101.472656 279.589844 104.976562 C 276.085938 108.511719 275.351562 113.957031 277.789062 118.226562 C 277.847656 118.332031 277.90625 118.46875 277.90625 118.605469 C 277.90625 118.6875 277.886719 118.765625 277.828125 118.824219 L 245.398438 151.21875 C 241.945312 154.675781 236.332031 154.675781 232.878906 151.21875 L 224.828125 143.171875 " fill-opacity="1" fill-rule="nonzero"/></g><g clip-path="url(#e7a5867b06)"><path fill="#ffffff" d="M 336.367188 35.179688 C 337.421875 34.121094 338.128906 32.800781 338.421875 31.332031 L 339.636719 25.242188 C 339.8125 24.371094 340.371094 23.585938 341.152344 23.109375 L 357.171875 13.511719 C 357.320312 13.425781 357.476562 13.445312 357.59375 13.550781 L 362.496094 18.457031 C 362.605469 18.574219 362.625 18.730469 362.546875 18.867188 L 352.933594 34.933594 C 352.460938 35.679688 351.679688 36.238281 350.789062 36.414062 L 344.71875 37.628906 C 343.25 37.921875 341.925781 38.625 340.871094 39.683594 L 293.441406 87.109375 L 288.941406 82.605469 L 336.367188 35.179688 " fill-opacity="1" fill-rule="nonzero"/></g><g clip-path="url(#9b1bd9d33f)"><path fill="#ffffff" d="M 146.3125 132.878906 L 120.167969 106.734375 C 119.179688 105.757812 117.59375 105.757812 116.625 106.734375 C 115.644531 107.714844 115.644531 109.300781 116.625 110.28125 L 142.765625 136.421875 C 143.257812 136.910156 143.890625 137.15625 144.539062 137.15625 C 145.175781 137.15625 145.820312 136.910156 146.3125 136.421875 C 147.289062 135.441406 147.289062 133.855469 146.3125 132.878906 Z M 112.121094 114.785156 C 111.140625 113.804688 109.554688 113.804688 108.578125 114.785156 C 107.597656 115.753906 107.597656 117.339844 108.578125 118.328125 L 134.71875 144.46875 C 135.207031 144.957031 135.855469 145.203125 136.492188 145.203125 C 137.136719 145.203125 137.773438 144.957031 138.261719 144.46875 C 139.242188 143.492188 139.242188 141.902344 138.261719 140.925781 Z M 144.765625 150.96875 C 141.308594 154.425781 135.699219 154.425781 132.242188 150.96875 L 99.785156 118.554688 C 99.667969 118.417969 99.753906 118.140625 99.84375 118.003906 C 102.292969 113.707031 101.558594 108.261719 98.0625 104.738281 C 94.558594 101.222656 89.101562 100.488281 84.785156 102.925781 C 84.550781 103.042969 84.324219 103.054688 84.257812 102.996094 L 79.929688 98.6875 C 79.8125 98.570312 79.8125 98.335938 79.9375 98.199219 L 100.039062 78.097656 C 100.175781 77.96875 100.410156 77.96875 100.539062 78.097656 L 104.796875 82.386719 C 104.894531 82.484375 104.886719 82.71875 104.757812 82.945312 C 102.332031 87.253906 103.066406 92.707031 106.570312 96.210938 C 110.105469 99.714844 115.546875 100.449219 119.816406 98.011719 C 119.925781 97.953125 120.0625 97.894531 120.199219 97.894531 C 120.277344 97.894531 120.355469 97.914062 120.414062 97.972656 L 152.8125 130.398438 C 156.269531 133.855469 156.269531 139.464844 152.8125 142.921875 L 144.765625 150.96875 " fill-opacity="1" fill-rule="nonzero"/></g><g clip-path="url(#84b915ee88)"><path fill="#ffffff" d="M 36.773438 39.433594 C 35.714844 38.375 34.390625 37.671875 32.921875 37.378906 L 26.832031 36.164062 C 25.960938 35.988281 25.179688 35.429688 24.699219 34.644531 L 15.105469 18.628906 C 15.015625 18.480469 15.035156 18.324219 15.144531 18.207031 L 20.050781 13.300781 C 20.167969 13.195312 20.324219 13.175781 20.460938 13.253906 L 36.527344 22.867188 C 37.269531 23.335938 37.828125 24.121094 38.003906 25.011719 L 39.21875 31.082031 C 39.511719 32.550781 40.21875 33.871094 41.273438 34.929688 L 88.703125 82.355469 L 84.199219 86.859375 L 36.773438 39.433594 " fill-opacity="1" fill-rule="nonzero"/></g><g clip-path="url(#1687f7f946)"><g clip-path="url(#2bc9adf7bc)"><g clip-path="url(#a2aa1a6290)"><g clip-path="url(#6c8d2a3ec1)"><path fill="#ffffff" d="M 80.609375 114.359375 C 84.292969 116.628906 88.027344 122.25 87.261719 127.964844 C 85.734375 139.390625 64.078125 144 61.210938 155.652344 C 60.179688 159.851562 61.09375 164.78125 64.488281 167.460938 C 67.03125 169.46875 70.441406 169.9375 73.675781 170.039062 C 76.910156 170.144531 80.160156 170.175781 83.308594 170.941406 C 87.097656 171.867188 89.449219 174.183594 89.703125 177.410156 C 90.003906 181.289062 86.476562 184.546875 84.308594 187.773438 C 80.652344 193.207031 77.320312 199.804688 83.214844 206.464844 C 76.574219 203.40625 73.910156 196.40625 78.628906 186.5625 C 79.660156 184.414062 80.957031 182.46875 80.40625 180.472656 C 79.710938 177.933594 76.609375 177.28125 73.976562 177.386719 C 64.878906 177.757812 58.417969 176.320312 54.277344 171.863281 C 46.855469 163.871094 48.789062 152.167969 54.765625 145.996094 C 63.386719 137.09375 75.78125 136.597656 82.761719 128.707031 C 86.554688 124.417969 83.804688 118.054688 80.609375 114.359375 " fill-opacity="1" fill-rule="nonzero"/></g></g></g></g><g clip-path="url(#64edad2874)"><g clip-path="url(#576f89eb77)"><g clip-path="url(#a23ac7b95c)"><path fill="#ffffff" d="M 77.660156 182.804688 C 77.851562 183.628906 77.710938 184.734375 77.574219 185.316406 C 78.304688 184.09375 78.933594 182.597656 78.449219 181.238281 C 77.6875 179.109375 75.253906 179.140625 71.476562 179.203125 C 62.375 179.351562 55.917969 178.136719 51.777344 173.675781 C 47.125 168.667969 46.148438 162.203125 47.539062 156.550781 C 45.175781 162.648438 46.09375 169.386719 51.144531 174.828125 C 55.285156 179.285156 61.972656 181 71.070312 180.632812 C 73.699219 180.523438 77.066406 180.300781 77.660156 182.804688 " fill-opacity="1" fill-rule="nonzero"/></g></g></g><g clip-path="url(#222fea1dc8)"><g clip-path="url(#3890836d49)"><g clip-path="url(#ebf3099ab8)"><g clip-path="url(#1e414ba417)"><path fill="#ffffff" d="M 88.394531 132.191406 C 87.082031 142.019531 68.175781 146.207031 65.710938 156.226562 C 64.820312 159.839844 65.890625 163.855469 68.808594 166.160156 C 70.511719 167.503906 72.671875 168.046875 74.859375 168.261719 C 73.15625 167.996094 71.449219 167.144531 70.105469 166.089844 C 67.339844 163.902344 66.660156 160.195312 67.503906 156.769531 C 69.839844 147.269531 87.523438 143.328125 88.769531 134.007812 C 88.949219 132.667969 88.800781 131.511719 88.460938 130.246094 C 88.5 130.886719 88.480469 131.539062 88.394531 132.191406 " fill-opacity="1" fill-rule="nonzero"/></g></g></g></g><g clip-path="url(#dec0dc2eba)"><path fill="#ffffff" d="M 242.78125 81.679688 C 242.859375 82.402344 243 83.109375 243.199219 83.808594 C 243.398438 84.503906 243.652344 85.179688 243.964844 85.832031 C 244.28125 86.484375 244.644531 87.109375 245.066406 87.699219 C 245.484375 88.292969 245.949219 88.84375 246.460938 89.355469 C 246.972656 89.867188 247.527344 90.332031 248.117188 90.753906 C 248.710938 91.171875 249.332031 91.539062 249.984375 91.851562 C 250.636719 92.164062 251.3125 92.421875 252.011719 92.621094 C 252.707031 92.816406 253.417969 92.957031 254.136719 93.035156 C 257.621094 93.417969 262.121094 93.664062 267.929688 93.664062 C 262.121094 93.664062 257.621094 93.910156 254.136719 94.292969 C 253.417969 94.371094 252.707031 94.511719 252.011719 94.710938 C 251.3125 94.90625 250.636719 95.164062 249.984375 95.476562 C 249.332031 95.789062 248.710938 96.15625 248.117188 96.574219 C 247.527344 96.996094 246.972656 97.460938 246.460938 97.972656 C 245.949219 98.484375 245.484375 99.039062 245.066406 99.628906 C 244.644531 100.21875 244.28125 100.84375 243.964844 101.496094 C 243.652344 102.148438 243.398438 102.824219 243.199219 103.523438 C 243 104.21875 242.859375 104.925781 242.78125 105.648438 C 242.398438 109.132812 242.152344 113.632812 242.152344 119.441406 C 242.152344 113.632812 241.90625 109.132812 241.523438 105.648438 C 241.445312 104.925781 241.308594 104.21875 241.109375 103.523438 C 240.910156 102.824219 240.652344 102.148438 240.339844 101.496094 C 240.027344 100.84375 239.660156 100.21875 239.242188 99.628906 C 238.824219 99.039062 238.355469 98.484375 237.84375 97.972656 C 237.332031 97.460938 236.78125 96.996094 236.1875 96.574219 C 235.597656 96.15625 234.976562 95.789062 234.320312 95.476562 C 233.667969 95.164062 232.992188 94.90625 232.296875 94.710938 C 231.597656 94.511719 230.890625 94.371094 230.167969 94.292969 C 226.683594 93.910156 222.183594 93.664062 216.375 93.664062 C 222.183594 93.664062 226.683594 93.417969 230.167969 93.035156 C 230.890625 92.957031 231.597656 92.816406 232.296875 92.621094 C 232.992188 92.421875 233.667969 92.164062 234.320312 91.851562 C 234.976562 91.539062 235.597656 91.171875 236.1875 90.753906 C 236.78125 90.332031 237.332031 89.867188 237.84375 89.355469 C 238.355469 88.84375 238.824219 88.292969 239.242188 87.699219 C 239.660156 87.109375 240.027344 86.484375 240.339844 85.832031 C 240.652344 85.179688 240.910156 84.503906 241.109375 83.808594 C 241.308594 83.109375 241.445312 82.402344 241.523438 81.679688 C 241.90625 78.195312 242.152344 73.695312 242.152344 67.886719 C 242.152344 73.695312 242.398438 78.195312 242.78125 81.679688 Z M 242.78125 81.679688 " fill-opacity="1" fill-rule="nonzero"/></g><g clip-path="url(#25d0ace600)"><path fill="#ffffff" d="M 306.335938 149.738281 C 306.414062 150.460938 306.554688 151.167969 306.75 151.867188 C 306.949219 152.5625 307.207031 153.238281 307.519531 153.890625 C 307.832031 154.542969 308.199219 155.167969 308.617188 155.757812 C 309.035156 156.351562 309.503906 156.902344 310.015625 157.414062 C 310.527344 157.925781 311.078125 158.394531 311.671875 158.8125 C 312.261719 159.230469 312.886719 159.597656 313.539062 159.910156 C 314.191406 160.222656 314.867188 160.480469 315.5625 160.679688 C 316.261719 160.878906 316.96875 161.015625 317.691406 161.09375 C 321.175781 161.476562 325.675781 161.722656 331.484375 161.722656 C 325.675781 161.722656 321.175781 161.96875 317.691406 162.351562 C 316.96875 162.429688 316.261719 162.570312 315.5625 162.769531 C 314.867188 162.96875 314.191406 163.222656 313.539062 163.535156 C 312.886719 163.851562 312.261719 164.214844 311.671875 164.632812 C 311.078125 165.054688 310.527344 165.519531 310.015625 166.03125 C 309.503906 166.542969 309.035156 167.097656 308.617188 167.6875 C 308.199219 168.277344 307.832031 168.902344 307.519531 169.554688 C 307.207031 170.207031 306.949219 170.882812 306.75 171.582031 C 306.554688 172.277344 306.414062 172.984375 306.335938 173.707031 C 305.953125 177.191406 305.707031 181.691406 305.707031 187.5 C 305.707031 181.691406 305.460938 177.191406 305.078125 173.707031 C 305 172.984375 304.859375 172.277344 304.660156 171.582031 C 304.464844 170.882812 304.207031 170.207031 303.894531 169.554688 C 303.582031 168.902344 303.214844 168.277344 302.796875 167.6875 C 302.375 167.097656 301.910156 166.542969 301.398438 166.03125 C 300.886719 165.519531 300.332031 165.054688 299.742188 164.632812 C 299.152344 164.214844 298.527344 163.851562 297.875 163.535156 C 297.222656 163.222656 296.546875 162.96875 295.847656 162.769531 C 295.152344 162.570312 294.445312 162.429688 293.722656 162.351562 C 290.238281 161.96875 285.738281 161.722656 279.929688 161.722656 C 285.738281 161.722656 290.238281 161.476562 293.722656 161.09375 C 294.445312 161.015625 295.152344 160.878906 295.847656 160.679688 C 296.546875 160.480469 297.222656 160.222656 297.875 159.910156 C 298.527344 159.597656 299.152344 159.230469 299.742188 158.8125 C 300.332031 158.394531 300.886719 157.925781 301.398438 157.414062 C 301.910156 156.902344 302.375 156.351562 302.796875 155.757812 C 303.214844 155.167969 303.582031 154.542969 303.894531 153.890625 C 304.207031 153.238281 304.460938 152.5625 304.660156 151.867188 C 304.859375 151.167969 305 150.460938 305.078125 149.738281 C 305.460938 146.253906 305.707031 141.753906 305.707031 135.945312 C 305.707031 141.753906 305.953125 146.253906 306.335938 149.738281 Z M 306.335938 149.738281 " fill-opacity="1" fill-rule="nonzero"/></g><g fill="#ffffff" fill-opacity="1"><g transform="translate(157.478101, 71.760669)"><g><path d="M 17.8125 -11.734375 C 18.21875 -8.679688 17.769531 -6.238281 16.46875 -4.40625 C 15.175781 -2.570312 13.117188 -1.46875 10.296875 -1.09375 C 7.484375 -0.726562 5.210938 -1.265625 3.484375 -2.703125 C 1.753906 -4.140625 0.6875 -6.394531 0.28125 -9.46875 C -0.125 -12.53125 0.320312 -14.96875 1.625 -16.78125 C 2.9375 -18.601562 5.007812 -19.703125 7.84375 -20.078125 C 10.675781 -20.441406 12.945312 -19.90625 14.65625 -18.46875 C 16.363281 -17.03125 17.414062 -14.785156 17.8125 -11.734375 Z M 4.375 -9.96875 C 4.644531 -7.914062 5.238281 -6.414062 6.15625 -5.46875 C 7.082031 -4.53125 8.320312 -4.160156 9.875 -4.359375 C 13 -4.773438 14.285156 -7.054688 13.734375 -11.203125 C 13.191406 -15.347656 11.367188 -17.21875 8.265625 -16.8125 C 6.710938 -16.601562 5.609375 -15.925781 4.953125 -14.78125 C 4.296875 -13.632812 4.101562 -12.03125 4.375 -9.96875 Z M 4.375 -9.96875 "/></g></g></g><g fill="#ffffff" fill-opacity="1"><g transform="translate(179.760892, 69.041245)"><g><path d="M 2.21875 -18.59375 L 8 -18.625 C 10.632812 -18.644531 12.546875 -18.28125 13.734375 -17.53125 C 14.929688 -16.789062 15.535156 -15.601562 15.546875 -13.96875 C 15.554688 -12.863281 15.300781 -11.953125 14.78125 -11.234375 C 14.269531 -10.523438 13.582031 -10.09375 12.71875 -9.9375 L 12.71875 -9.8125 C 13.894531 -9.5625 14.742188 -9.078125 15.265625 -8.359375 C 15.796875 -7.648438 16.066406 -6.695312 16.078125 -5.5 C 16.085938 -3.800781 15.484375 -2.472656 14.265625 -1.515625 C 13.046875 -0.554688 11.390625 -0.0703125 9.296875 -0.0625 L 2.34375 -0.015625 Z M 6.203125 -11.265625 L 8.484375 -11.28125 C 9.554688 -11.28125 10.332031 -11.445312 10.8125 -11.78125 C 11.289062 -12.125 11.53125 -12.675781 11.53125 -13.4375 C 11.519531 -14.144531 11.253906 -14.648438 10.734375 -14.953125 C 10.210938 -15.265625 9.382812 -15.414062 8.25 -15.40625 L 6.1875 -15.40625 Z M 6.234375 -8.140625 L 6.265625 -3.296875 L 8.828125 -3.3125 C 9.910156 -3.3125 10.707031 -3.519531 11.21875 -3.9375 C 11.738281 -4.363281 12 -5.003906 12 -5.859375 C 11.988281 -7.398438 10.878906 -8.164062 8.671875 -8.15625 Z M 6.234375 -8.140625 "/></g></g></g><g fill="#ffffff" fill-opacity="1"><g transform="translate(199.278932, 69.208087)"><g><path d="M 2.328125 0.203125 L 3.875 -18.3125 L 7.8125 -17.984375 L 6.265625 0.53125 Z M 2.328125 0.203125 "/></g></g></g><g fill="#ffffff" fill-opacity="1"><g transform="translate(115.109057, 302.080978)"><g><path d="M 8.265625 4.671875 L 4.84375 2.734375 L 12.375 -10.578125 L 7.984375 -13.0625 L 9.59375 -15.921875 L 21.8125 -9.015625 L 20.203125 -6.15625 L 15.796875 -8.640625 Z M 8.265625 4.671875 "/></g></g></g><g fill="#ffffff" fill-opacity="1"><g transform="translate(129.246572, 310.001011)"><g><path d="M 11.796875 -7.8125 C 11.035156 -8.125 10.335938 -8.128906 9.703125 -7.828125 C 9.066406 -7.523438 8.539062 -6.941406 8.125 -6.078125 L 13.15625 -4.015625 C 13.5 -4.898438 13.546875 -5.671875 13.296875 -6.328125 C 13.054688 -6.992188 12.554688 -7.488281 11.796875 -7.8125 Z M 7.734375 3.46875 C 5.617188 2.59375 4.203125 1.328125 3.484375 -0.328125 C 2.773438 -1.984375 2.863281 -3.878906 3.75 -6.015625 C 4.65625 -8.222656 5.90625 -9.703125 7.5 -10.453125 C 9.101562 -11.203125 10.878906 -11.175781 12.828125 -10.375 C 14.679688 -9.613281 15.90625 -8.488281 16.5 -7 C 17.101562 -5.507812 17.019531 -3.832031 16.25 -1.96875 L 15.53125 -0.234375 L 7.046875 -3.734375 C 6.671875 -2.691406 6.644531 -1.765625 6.96875 -0.953125 C 7.289062 -0.148438 7.960938 0.457031 8.984375 0.875 C 9.773438 1.195312 10.554688 1.414062 11.328125 1.53125 C 12.109375 1.65625 12.957031 1.703125 13.875 1.671875 L 12.71875 4.453125 C 11.96875 4.503906 11.203125 4.457031 10.421875 4.3125 C 9.648438 4.164062 8.753906 3.882812 7.734375 3.46875 Z M 7.734375 3.46875 "/></g></g></g><g fill="#ffffff" fill-opacity="1"><g transform="translate(144.48899, 316.163784)"><g><path d="M 7.4375 2.359375 C 3.1875 1.148438 1.71875 -1.785156 3.03125 -6.453125 C 3.695312 -8.773438 4.78125 -10.382812 6.28125 -11.28125 C 7.78125 -12.1875 9.609375 -12.332031 11.765625 -11.71875 C 13.347656 -11.269531 14.6875 -10.554688 15.78125 -9.578125 L 13.84375 -7.015625 C 13.332031 -7.410156 12.84375 -7.753906 12.375 -8.046875 C 11.90625 -8.335938 11.414062 -8.554688 10.90625 -8.703125 C 8.976562 -9.253906 7.628906 -8.148438 6.859375 -5.390625 C 6.097656 -2.722656 6.679688 -1.113281 8.609375 -0.5625 C 9.335938 -0.363281 10.035156 -0.269531 10.703125 -0.28125 C 11.367188 -0.300781 12.066406 -0.429688 12.796875 -0.671875 L 11.890625 2.53125 C 11.179688 2.738281 10.5 2.828125 9.84375 2.796875 C 9.1875 2.765625 8.382812 2.617188 7.4375 2.359375 Z M 7.4375 2.359375 "/></g></g></g><g fill="#ffffff" fill-opacity="1"><g transform="translate(158.45239, 320.156801)"><g><path d="M 14.984375 2.296875 L 11.15625 1.71875 L 12.421875 -6.484375 C 12.734375 -8.515625 12.128906 -9.648438 10.609375 -9.890625 C 9.546875 -10.046875 8.71875 -9.796875 8.125 -9.140625 C 7.53125 -8.492188 7.109375 -7.351562 6.859375 -5.71875 L 5.84375 0.890625 L 2 0.3125 L 5 -19.234375 L 8.84375 -18.65625 L 8.234375 -14.671875 C 8.191406 -14.367188 8.054688 -13.640625 7.828125 -12.484375 L 7.546875 -11.375 L 7.75 -11.34375 C 8.820312 -12.59375 10.285156 -13.070312 12.140625 -12.78125 C 13.796875 -12.53125 14.984375 -11.894531 15.703125 -10.875 C 16.421875 -9.851562 16.648438 -8.515625 16.390625 -6.859375 Z M 14.984375 2.296875 "/></g></g></g><g fill="#ffffff" fill-opacity="1"><g transform="translate(176.261527, 322.600383)"><g/></g></g><g fill="#ffffff" fill-opacity="1"><g transform="translate(183.568048, 323.019124)"><g><path d="M 0.75 -5.390625 L 0.734375 -8.5625 L 7.546875 -8.59375 L 7.5625 -5.421875 Z M 0.75 -5.390625 "/></g></g></g><g fill="#ffffff" fill-opacity="1"><g transform="translate(192.498031, 322.934426)"><g/></g></g><g fill="#ffffff" fill-opacity="1"><g transform="translate(199.981144, 322.534496)"><g><path d="M 11.21875 -5.90625 C 11.425781 -4.46875 11.082031 -3.296875 10.1875 -2.390625 C 9.289062 -1.492188 7.847656 -0.898438 5.859375 -0.609375 C 4.828125 -0.453125 3.941406 -0.390625 3.203125 -0.421875 C 2.460938 -0.460938 1.757812 -0.570312 1.09375 -0.75 L 0.625 -3.90625 C 1.394531 -3.675781 2.242188 -3.507812 3.171875 -3.40625 C 4.097656 -3.3125 4.898438 -3.316406 5.578125 -3.421875 C 6.972656 -3.617188 7.613281 -4.117188 7.5 -4.921875 C 7.445312 -5.234375 7.3125 -5.46875 7.09375 -5.625 C 6.882812 -5.789062 6.535156 -5.957031 6.046875 -6.125 C 5.566406 -6.289062 4.925781 -6.484375 4.125 -6.703125 C 2.976562 -6.992188 2.125 -7.296875 1.5625 -7.609375 C 1 -7.921875 0.5625 -8.3125 0.25 -8.78125 C -0.0507812 -9.25 -0.253906 -9.847656 -0.359375 -10.578125 C -0.546875 -11.828125 -0.207031 -12.863281 0.65625 -13.6875 C 1.53125 -14.507812 2.851562 -15.050781 4.625 -15.3125 C 6.332031 -15.5625 8.035156 -15.429688 9.734375 -14.921875 L 8.984375 -11.984375 C 8.242188 -12.191406 7.550781 -12.34375 6.90625 -12.4375 C 6.257812 -12.539062 5.613281 -12.546875 4.96875 -12.453125 C 3.84375 -12.285156 3.328125 -11.894531 3.421875 -11.28125 C 3.472656 -10.9375 3.695312 -10.664062 4.09375 -10.46875 C 4.5 -10.28125 5.359375 -10.023438 6.671875 -9.703125 C 7.816406 -9.429688 8.671875 -9.132812 9.234375 -8.8125 C 9.804688 -8.5 10.253906 -8.109375 10.578125 -7.640625 C 10.898438 -7.179688 11.113281 -6.601562 11.21875 -5.90625 Z M 11.21875 -5.90625 "/></g></g></g><g fill="#ffffff" fill-opacity="1"><g transform="translate(213.903387, 320.555566)"><g><path d="M 14.625 -4 L 10.875 -2.96875 L 8.6875 -10.96875 C 8.144531 -12.945312 7.140625 -13.734375 5.671875 -13.328125 C 4.617188 -13.046875 3.957031 -12.488281 3.6875 -11.65625 C 3.414062 -10.820312 3.5 -9.609375 3.9375 -8.015625 L 5.703125 -1.5625 L 1.953125 -0.53125 L -3.25 -19.609375 L 0.5 -20.640625 L 1.546875 -16.75 C 1.628906 -16.445312 1.800781 -15.722656 2.0625 -14.578125 L 2.265625 -13.46875 L 2.46875 -13.515625 C 2.9375 -15.085938 4.070312 -16.117188 5.875 -16.609375 C 7.5 -17.054688 8.84375 -16.957031 9.90625 -16.3125 C 10.976562 -15.675781 11.738281 -14.550781 12.1875 -12.9375 Z M 14.625 -4 "/></g></g></g><g fill="#ffffff" fill-opacity="1"><g transform="translate(231.547676, 315.604461)"><g><path d="M 10.1875 -4.296875 L 8.75 -5.78125 L 8.65625 -5.75 C 8.382812 -4.738281 7.988281 -3.953125 7.46875 -3.390625 C 6.945312 -2.828125 6.171875 -2.328125 5.140625 -1.890625 C 3.890625 -1.359375 2.753906 -1.300781 1.734375 -1.71875 C 0.710938 -2.132812 -0.078125 -3.007812 -0.640625 -4.34375 C -1.222656 -5.726562 -1.164062 -6.953125 -0.46875 -8.015625 C 0.226562 -9.085938 1.539062 -10.070312 3.46875 -10.96875 L 5.703125 -12.015625 L 5.46875 -12.578125 C 4.90625 -13.910156 3.941406 -14.289062 2.578125 -13.71875 C 1.535156 -13.269531 0.441406 -12.429688 -0.703125 -11.203125 L -2.90625 -13.125 C -1.738281 -14.539062 -0.238281 -15.632812 1.59375 -16.40625 C 3.351562 -17.15625 4.863281 -17.34375 6.125 -16.96875 C 7.382812 -16.601562 8.347656 -15.632812 9.015625 -14.0625 L 12.6875 -5.34375 Z M 6.578125 -9.921875 L 5.234375 -9.28125 C 4.191406 -8.8125 3.488281 -8.296875 3.125 -7.734375 C 2.769531 -7.179688 2.738281 -6.554688 3.03125 -5.859375 C 3.457031 -4.847656 4.25 -4.585938 5.40625 -5.078125 C 6.226562 -5.421875 6.785156 -5.9375 7.078125 -6.625 C 7.378906 -7.3125 7.363281 -8.054688 7.03125 -8.859375 Z M 6.578125 -9.921875 "/></g></g></g><g fill="#ffffff" fill-opacity="1"><g transform="translate(246.904051, 308.952894)"><g><path d="M 1.625 -17.515625 C 2.070312 -17.765625 2.472656 -17.941406 2.828125 -18.046875 L 4.34375 -14.734375 C 4.03125 -14.660156 3.679688 -14.515625 3.296875 -14.296875 C 2.210938 -13.691406 1.519531 -12.941406 1.21875 -12.046875 C 0.925781 -11.148438 1.0625 -10.203125 1.625 -9.203125 L 5.15625 -2.890625 L 1.765625 -0.984375 L -5.171875 -13.375 L -2.59375 -14.8125 L -0.9375 -13.03125 L -0.78125 -13.125 C -0.78125 -14.03125 -0.570312 -14.878906 -0.15625 -15.671875 C 0.257812 -16.460938 0.851562 -17.078125 1.625 -17.515625 Z M 1.625 -17.515625 "/></g></g></g><g fill="#ffffff" fill-opacity="1"><g transform="translate(258.123343, 302.722228)"><g><path d="M -0.359375 -14.140625 C -1.035156 -13.660156 -1.410156 -13.070312 -1.484375 -12.375 C -1.566406 -11.675781 -1.351562 -10.921875 -0.84375 -10.109375 L 3.578125 -13.265625 C 3.003906 -14.035156 2.367188 -14.488281 1.671875 -14.625 C 0.984375 -14.769531 0.304688 -14.609375 -0.359375 -14.140625 Z M 7.03125 -4.71875 C 5.164062 -3.382812 3.34375 -2.859375 1.5625 -3.140625 C -0.207031 -3.421875 -1.765625 -4.503906 -3.109375 -6.390625 C -4.492188 -8.328125 -5.078125 -10.171875 -4.859375 -11.921875 C -4.648438 -13.671875 -3.691406 -15.15625 -1.984375 -16.375 C -0.347656 -17.539062 1.253906 -17.976562 2.828125 -17.6875 C 4.398438 -17.40625 5.773438 -16.445312 6.953125 -14.8125 L 8.046875 -13.28125 L 0.578125 -7.953125 C 1.253906 -7.085938 2.019531 -6.578125 2.875 -6.421875 C 3.726562 -6.273438 4.601562 -6.519531 5.5 -7.15625 C 6.195312 -7.65625 6.804688 -8.195312 7.328125 -8.78125 C 7.847656 -9.375 8.332031 -10.066406 8.78125 -10.859375 L 10.515625 -8.421875 C 10.160156 -7.742188 9.710938 -7.113281 9.171875 -6.53125 C 8.640625 -5.957031 7.925781 -5.351562 7.03125 -4.71875 Z M 7.03125 -4.71875 "/></g></g></g></svg>