<svg xmlns="http://www.w3.org/2000/svg" xmlns:xlink="http://www.w3.org/1999/xlink" width="500" zoomAndPan="magnify" viewBox="0 0 375 374.999991" height="500" preserveAspectRatio="xMidYMid meet" version="1.0"><defs><g/><clipPath id="d4dd8f1d58"><path d="M 35.320312 35.976562 L 339.820312 35.976562 L 339.820312 338.976562 L 35.320312 338.976562 Z M 35.320312 35.976562 " clip-rule="nonzero"/></clipPath><clipPath id="64a2921b11"><path d="M 187.496094 35.976562 C 103.453125 35.976562 35.320312 103.816406 35.320312 187.5 C 35.320312 271.179688 103.453125 339.019531 187.496094 339.019531 C 271.539062 339.019531 339.667969 271.179688 339.667969 187.5 C 339.667969 103.816406 271.539062 35.976562 187.496094 35.976562 Z M 187.496094 35.976562 " clip-rule="nonzero"/></clipPath><clipPath id="1ca8cf42ed"><path d="M 73.472656 223.023438 L 170.972656 223.023438 L 170.972656 257.8125 L 73.472656 257.8125 Z M 73.472656 223.023438 " clip-rule="nonzero"/></clipPath><clipPath id="dadf6e33fe"><path d="M 101 117.132812 L 170.972656 117.132812 L 170.972656 216 L 101 216 Z M 101 117.132812 " clip-rule="nonzero"/></clipPath><clipPath id="79fbea8db0"><path d="M 203.800781 223.023438 L 302.050781 223.023438 L 302.050781 257.8125 L 203.800781 257.8125 Z M 203.800781 223.023438 " clip-rule="nonzero"/></clipPath><clipPath id="dbcdbe7903"><path d="M 203.800781 117.132812 L 275 117.132812 L 275 216 L 203.800781 216 Z M 203.800781 117.132812 " clip-rule="nonzero"/></clipPath><clipPath id="52a05f2f35"><path d="M 67 68 L 146.441406 68 L 146.441406 146.71875 L 67 146.71875 Z M 67 68 " clip-rule="nonzero"/></clipPath><clipPath id="f2af332fc3"><path d="M 51.625 99.589844 L 99.742188 51.476562 L 147.433594 99.167969 L 99.320312 147.28125 Z M 51.625 99.589844 " clip-rule="nonzero"/></clipPath><clipPath id="3a4e70d23a"><path d="M 51 51 L 77 51 L 77 78 L 51 78 Z M 51 51 " clip-rule="nonzero"/></clipPath><clipPath id="bb6c3773f9"><path d="M 51.625 99.589844 L 99.742188 51.476562 L 147.433594 99.167969 L 99.320312 147.28125 Z M 51.625 99.589844 " clip-rule="nonzero"/></clipPath><clipPath id="a4bb4cf35e"><path d="M 90.605469 87.050781 L 146.441406 87.050781 L 146.441406 146.71875 L 90.605469 146.71875 Z M 90.605469 87.050781 " clip-rule="nonzero"/></clipPath><clipPath id="f28a178eca"><rect x="0" width="147" y="0" height="147"/></clipPath><clipPath id="3a0d07bbe1"><path d="M 0.199219 67 L 79 67 L 79 146.480469 L 0.199219 146.480469 Z M 0.199219 67 " clip-rule="nonzero"/></clipPath><clipPath id="b5b7d95ca5"><path d="M 47.378906 51.644531 L 95.496094 99.757812 L 47.800781 147.449219 L -0.3125 99.335938 Z M 47.378906 51.644531 " clip-rule="nonzero"/></clipPath><clipPath id="4a01a87a4c"><path d="M 69 51 L 96 51 L 96 78 L 69 78 Z M 69 51 " clip-rule="nonzero"/></clipPath><clipPath id="0cfce851cc"><path d="M 47.378906 51.644531 L 95.496094 99.757812 L 47.800781 147.449219 L -0.3125 99.335938 Z M 47.378906 51.644531 " clip-rule="nonzero"/></clipPath><clipPath id="ce34526e83"><path d="M 0.199219 90.621094 L 59.917969 90.621094 L 59.917969 146.480469 L 0.199219 146.480469 Z M 0.199219 90.621094 " clip-rule="nonzero"/></clipPath><clipPath id="a25beba757"><rect x="0" width="147" y="0" height="147"/></clipPath><clipPath id="065641b97e"><path d="M 297.34375 13.203125 L 362.59375 13.203125 L 362.59375 78.453125 L 297.34375 78.453125 Z M 297.34375 13.203125 " clip-rule="nonzero"/></clipPath><clipPath id="704b3827cf"><path d="M 0.34375 65 L 1 65 L 1 65.453125 L 0.34375 65.453125 Z M 0.34375 65 " clip-rule="nonzero"/></clipPath><clipPath id="63a3a80905"><path d="M 0.34375 0.566406 L 65.59375 0.566406 L 65.59375 65.453125 L 0.34375 65.453125 Z M 0.34375 0.566406 " clip-rule="nonzero"/></clipPath><clipPath id="f137a3c22f"><rect x="0" width="66" y="0" height="66"/></clipPath><clipPath id="3325877778"><path d="M 14.796875 13.203125 L 80.046875 13.203125 L 80.046875 78.453125 L 14.796875 78.453125 Z M 14.796875 13.203125 " clip-rule="nonzero"/></clipPath><clipPath id="e642cb485f"><path d="M 65 65 L 66.046875 65 L 66.046875 65.453125 L 65 65.453125 Z M 65 65 " clip-rule="nonzero"/></clipPath><clipPath id="eddb7b11c3"><path d="M 1.160156 0.203125 L 66.046875 0.203125 L 66.046875 65.453125 L 1.160156 65.453125 Z M 1.160156 0.203125 " clip-rule="nonzero"/></clipPath><clipPath id="84be21e087"><rect x="0" width="67" y="0" height="66"/></clipPath><clipPath id="6a469755ad"><path d="M 49 114 L 90 114 L 90 207 L 49 207 Z M 49 114 " clip-rule="nonzero"/></clipPath><clipPath id="c4da78ff18"><path d="M 36.207031 124.003906 L 84.578125 113.496094 L 103.839844 202.179688 L 55.464844 212.683594 Z M 36.207031 124.003906 " clip-rule="nonzero"/></clipPath><clipPath id="eeb0f9bcb6"><path d="M 36.207031 124.003906 L 84.578125 113.496094 L 103.839844 202.179688 L 55.464844 212.683594 Z M 36.207031 124.003906 " clip-rule="nonzero"/></clipPath><clipPath id="364d71f552"><path d="M 40.960938 122.96875 L 84.828125 113.445312 L 104.046875 201.941406 L 60.179688 211.46875 Z M 40.960938 122.96875 " clip-rule="nonzero"/></clipPath><clipPath id="ba7d383d93"><path d="M 46 156 L 79 156 L 79 186 L 46 186 Z M 46 156 " clip-rule="nonzero"/></clipPath><clipPath id="72810a3e86"><path d="M 36.207031 124.003906 L 84.578125 113.496094 L 103.839844 202.179688 L 55.464844 212.683594 Z M 36.207031 124.003906 " clip-rule="nonzero"/></clipPath><clipPath id="078619cf9b"><path d="M 36.207031 124.003906 L 84.578125 113.496094 L 103.839844 202.179688 L 55.464844 212.683594 Z M 36.207031 124.003906 " clip-rule="nonzero"/></clipPath><clipPath id="d75ea9d53b"><path d="M 65 130 L 89 130 L 89 169 L 65 169 Z M 65 130 " clip-rule="nonzero"/></clipPath><clipPath id="2a798ad397"><path d="M 36.207031 124.003906 L 84.578125 113.496094 L 103.839844 202.179688 L 55.464844 212.683594 Z M 36.207031 124.003906 " clip-rule="nonzero"/></clipPath><clipPath id="96f0360f9b"><path d="M 36.207031 124.003906 L 84.578125 113.496094 L 103.839844 202.179688 L 55.464844 212.683594 Z M 36.207031 124.003906 " clip-rule="nonzero"/></clipPath><clipPath id="d85b14980c"><path d="M 60.269531 136.332031 L 88.46875 130.207031 L 95.75 163.738281 L 67.550781 169.863281 Z M 60.269531 136.332031 " clip-rule="nonzero"/></clipPath><clipPath id="8dc015368b"><path d="M 216.375 67.886719 L 268 67.886719 L 268 119.636719 L 216.375 119.636719 Z M 216.375 67.886719 " clip-rule="nonzero"/></clipPath><clipPath id="38ab83bae8"><path d="M 279.929688 135.945312 L 331.679688 135.945312 L 331.679688 187.695312 L 279.929688 187.695312 Z M 279.929688 135.945312 " clip-rule="nonzero"/></clipPath></defs><g clip-path="url(#d4dd8f1d58)"><g clip-path="url(#64a2921b11)"><path stroke-linecap="butt" transform="matrix(0.75, 0, 0, 0.75, 35.322256, 35.97789)" fill="none" stroke-linejoin="miter" d="M 202.898477 -0.00176941 C 90.841171 -0.00176941 -0.00259083 90.451367 -0.00259083 202.029507 C -0.00259083 313.602438 90.841171 404.055575 202.898477 404.055575 C 314.955783 404.055575 405.794337 313.602438 405.794337 202.029507 C 405.794337 90.451367 314.955783 -0.00176941 202.898477 -0.00176941 Z M 202.898477 -0.00176941 " stroke="#ffffff" stroke-width="22" stroke-opacity="1" stroke-miterlimit="4"/></g></g><g clip-path="url(#1ca8cf42ed)"><path fill="#ffffff" d="M 209.304688 248.957031 L 148.472656 248.957031 C 148.054688 248.957031 147.785156 248.515625 147.976562 248.144531 L 152.660156 239.128906 C 152.753906 238.945312 152.945312 238.828125 153.152344 238.828125 L 204.625 238.828125 C 204.832031 238.828125 205.023438 238.945312 205.117188 239.128906 L 209.800781 248.144531 C 209.992188 248.515625 209.726562 248.957031 209.304688 248.957031 Z M 282.960938 249.980469 L 257.769531 224.789062 C 256.910156 223.925781 255.742188 223.445312 254.523438 223.445312 L 103.253906 223.445312 C 102.035156 223.445312 100.871094 223.925781 100.007812 224.789062 L 74.816406 249.980469 C 73.957031 250.839844 73.472656 252.007812 73.472656 253.222656 C 73.472656 255.757812 75.527344 257.8125 78.058594 257.8125 L 279.71875 257.8125 C 282.25 257.8125 284.304688 255.757812 284.304688 253.222656 C 284.304688 252.007812 283.824219 250.839844 282.960938 249.980469 " fill-opacity="1" fill-rule="nonzero"/></g><g clip-path="url(#dadf6e33fe)"><path fill="#ffffff" d="M 248.886719 117.183594 L 108.894531 117.183594 C 104.84375 117.183594 101.527344 120.5 101.527344 124.546875 L 101.527344 207.664062 C 101.527344 211.710938 104.84375 215.027344 108.894531 215.027344 L 248.886719 215.027344 C 252.933594 215.027344 256.25 211.710938 256.25 207.664062 L 256.25 124.546875 C 256.25 120.5 252.933594 117.183594 248.886719 117.183594 Z M 247.726562 125.707031 L 247.726562 206.503906 L 110.050781 206.503906 L 110.050781 125.707031 L 247.726562 125.707031 " fill-opacity="1" fill-rule="nonzero"/></g><g clip-path="url(#79fbea8db0)"><path fill="#ffffff" d="M 227.390625 248.957031 L 166.554688 248.957031 C 166.136719 248.957031 165.871094 248.515625 166.0625 248.144531 L 170.746094 239.128906 C 170.839844 238.945312 171.03125 238.828125 171.238281 238.828125 L 222.707031 238.828125 C 222.914062 238.828125 223.105469 238.945312 223.203125 239.128906 L 227.886719 248.144531 C 228.078125 248.515625 227.808594 248.957031 227.390625 248.957031 Z M 301.046875 249.980469 L 275.851562 224.789062 C 274.992188 223.925781 273.828125 223.445312 272.609375 223.445312 L 121.335938 223.445312 C 120.121094 223.445312 118.953125 223.925781 118.09375 224.789062 L 92.902344 249.980469 C 92.039062 250.839844 91.558594 252.007812 91.558594 253.222656 C 91.558594 255.757812 93.613281 257.8125 96.144531 257.8125 L 297.800781 257.8125 C 300.335938 257.8125 302.390625 255.757812 302.390625 253.222656 C 302.390625 252.007812 301.90625 250.839844 301.046875 249.980469 " fill-opacity="1" fill-rule="nonzero"/></g><g clip-path="url(#dbcdbe7903)"><path fill="#ffffff" d="M 266.96875 117.183594 L 126.976562 117.183594 C 122.925781 117.183594 119.613281 120.5 119.613281 124.546875 L 119.613281 207.664062 C 119.613281 211.710938 122.925781 215.027344 126.976562 215.027344 L 266.96875 215.027344 C 271.019531 215.027344 274.335938 211.710938 274.335938 207.664062 L 274.335938 124.546875 C 274.335938 120.5 271.019531 117.183594 266.96875 117.183594 Z M 265.808594 125.707031 L 265.808594 206.503906 L 128.136719 206.503906 L 128.136719 125.707031 L 265.808594 125.707031 " fill-opacity="1" fill-rule="nonzero"/></g><path stroke-linecap="round" transform="matrix(0, 0.75, -0.75, 0, 192.371404, 93.667962)" fill="none" stroke-linejoin="miter" d="M 6.50001 6.500414 L 243.729192 6.500414 " stroke="#ffffff" stroke-width="13" stroke-opacity="1" stroke-miterlimit="4"/><g transform="matrix(1, 0, 0, 1, 221, 220)"><g clip-path="url(#f28a178eca)"><g clip-path="url(#52a05f2f35)"><g clip-path="url(#f2af332fc3)"><path fill="#ffffff" d="M 124.796875 137.109375 L 97.640625 109.957031 C 96.625 108.929688 96.625 107.28125 97.640625 106.273438 C 98.65625 105.257812 100.304688 105.257812 101.324219 106.273438 L 128.476562 133.429688 C 128.984375 133.9375 129.238281 134.597656 129.238281 135.269531 C 129.238281 135.929688 128.984375 136.601562 128.476562 137.109375 C 127.460938 138.125 125.8125 138.125 124.796875 137.109375 Z M 106 101.59375 C 104.984375 100.578125 104.984375 98.929688 106 97.914062 C 107.007812 96.898438 108.65625 96.898438 109.683594 97.914062 L 136.835938 125.066406 C 137.34375 125.578125 137.597656 126.246094 137.597656 126.910156 C 137.597656 127.582031 137.34375 128.242188 136.835938 128.75 C 135.820312 129.765625 134.171875 129.765625 133.15625 128.75 Z M 143.589844 135.503906 C 147.179688 131.914062 147.179688 126.085938 143.589844 122.496094 L 109.917969 88.78125 C 109.773438 88.660156 109.488281 88.75 109.347656 88.84375 C 104.882812 91.382812 99.226562 90.621094 95.566406 86.992188 C 91.914062 83.351562 91.152344 77.683594 93.683594 73.199219 C 93.804688 72.957031 93.816406 72.722656 93.753906 72.652344 L 89.28125 68.15625 C 89.160156 68.035156 88.914062 68.035156 88.773438 68.164062 L 67.894531 89.046875 C 67.761719 89.1875 67.761719 89.433594 67.894531 89.5625 L 72.347656 93.988281 C 72.449219 94.089844 72.691406 94.078125 72.925781 93.949219 C 77.402344 91.425781 83.066406 92.1875 86.707031 95.828125 C 90.347656 99.5 91.113281 105.15625 88.578125 109.589844 C 88.519531 109.699219 88.457031 109.84375 88.457031 109.984375 C 88.457031 110.066406 88.476562 110.148438 88.539062 110.210938 L 122.222656 143.863281 C 125.8125 147.453125 131.640625 147.453125 135.230469 143.863281 L 143.589844 135.503906 " fill-opacity="1" fill-rule="nonzero"/></g></g><g clip-path="url(#3a4e70d23a)"><g clip-path="url(#bb6c3773f9)"><path fill="#ffffff" d="M 27.730469 23.324219 C 26.632812 22.226562 25.898438 20.855469 25.59375 19.328125 L 24.332031 13.003906 C 24.152344 12.097656 23.570312 11.285156 22.757812 10.785156 L 6.121094 0.820312 C 5.964844 0.726562 5.804688 0.746094 5.683594 0.859375 L 0.585938 5.953125 C 0.476562 6.078125 0.453125 6.238281 0.535156 6.382812 L 10.523438 23.070312 C 11.011719 23.84375 11.824219 24.425781 12.75 24.605469 L 19.054688 25.867188 C 20.582031 26.171875 21.953125 26.90625 23.050781 28.003906 L 72.316406 77.269531 L 76.996094 72.589844 L 27.730469 23.324219 " fill-opacity="1" fill-rule="nonzero"/></g></g><g clip-path="url(#a4bb4cf35e)"><path fill="#ffffff" d="M 125.222656 137.304688 L 98.585938 110.664062 C 97.585938 109.65625 97.585938 108.042969 98.585938 107.054688 C 99.582031 106.054688 101.199219 106.054688 102.195312 107.054688 L 128.832031 133.691406 C 129.332031 134.191406 129.582031 134.839844 129.582031 135.496094 C 129.582031 136.144531 129.332031 136.804688 128.832031 137.304688 C 127.835938 138.300781 126.21875 138.300781 125.222656 137.304688 Z M 106.785156 102.464844 C 105.789062 101.46875 105.789062 99.851562 106.785156 98.855469 C 107.773438 97.855469 109.390625 97.855469 110.398438 98.855469 L 137.035156 125.492188 C 137.53125 125.988281 137.78125 126.648438 137.78125 127.296875 C 137.78125 127.953125 137.53125 128.601562 137.035156 129.101562 C 136.035156 130.101562 134.417969 130.101562 133.421875 129.101562 Z M 143.65625 135.726562 C 147.179688 132.203125 147.179688 126.488281 143.65625 122.964844 L 110.625 89.894531 C 110.484375 89.773438 110.207031 89.863281 110.066406 89.953125 C 105.6875 92.449219 100.140625 91.699219 96.550781 88.140625 C 92.96875 84.566406 92.21875 79.011719 94.703125 74.609375 C 94.824219 74.371094 94.832031 74.140625 94.773438 74.070312 L 90.382812 69.664062 C 90.265625 69.542969 90.023438 69.542969 89.886719 69.671875 L 69.402344 90.152344 C 69.273438 90.292969 69.273438 90.535156 69.402344 90.664062 L 73.773438 95.003906 C 73.871094 95.101562 74.113281 95.09375 74.339844 94.960938 C 78.730469 92.488281 84.289062 93.238281 87.859375 96.808594 C 91.429688 100.410156 92.179688 105.957031 89.695312 110.304688 C 89.636719 110.417969 89.574219 110.554688 89.574219 110.695312 C 89.574219 110.777344 89.59375 110.855469 89.65625 110.914062 L 122.699219 143.925781 C 126.21875 147.449219 131.9375 147.449219 135.457031 143.925781 L 143.65625 135.726562 " fill-opacity="1" fill-rule="nonzero"/></g></g></g><g transform="matrix(1, 0, 0, 1, 7, 220)"><g clip-path="url(#a25beba757)"><g clip-path="url(#3a0d07bbe1)"><g clip-path="url(#b5b7d95ca5)"><path fill="#ffffff" d="M 9.859375 124.8125 L 37.015625 97.65625 C 38.042969 96.640625 39.6875 96.640625 40.695312 97.65625 C 41.714844 98.675781 41.714844 100.320312 40.695312 101.339844 L 13.542969 128.492188 C 13.03125 129.003906 12.371094 129.257812 11.699219 129.257812 C 11.039062 129.257812 10.367188 129.003906 9.859375 128.492188 C 8.84375 127.476562 8.84375 125.828125 9.859375 124.8125 Z M 45.375 106.015625 C 46.390625 105 48.039062 105 49.054688 106.015625 C 50.074219 107.023438 50.074219 108.671875 49.054688 109.699219 L 21.902344 136.851562 C 21.394531 137.363281 20.722656 137.617188 20.0625 137.617188 C 19.390625 137.617188 18.726562 137.363281 18.21875 136.851562 C 17.203125 135.835938 17.203125 134.1875 18.21875 133.171875 Z M 11.46875 143.605469 C 15.058594 147.195312 20.882812 147.195312 24.472656 143.605469 L 58.1875 109.933594 C 58.3125 109.789062 58.21875 109.503906 58.128906 109.363281 C 55.585938 104.898438 56.347656 99.242188 59.980469 95.582031 C 63.621094 91.933594 69.285156 91.167969 73.769531 93.703125 C 74.011719 93.824219 74.246094 93.832031 74.320312 93.773438 L 78.8125 89.296875 C 78.9375 89.175781 78.9375 88.929688 78.804688 88.789062 L 57.925781 67.910156 C 57.78125 67.777344 57.539062 67.777344 57.40625 67.910156 L 52.980469 72.363281 C 52.878906 72.464844 52.890625 72.710938 53.023438 72.945312 C 55.542969 77.417969 54.78125 83.082031 51.140625 86.722656 C 47.46875 90.367188 41.816406 91.128906 37.378906 88.597656 C 37.269531 88.535156 37.125 88.472656 36.984375 88.472656 C 36.902344 88.472656 36.820312 88.496094 36.761719 88.554688 L 3.105469 122.238281 C -0.484375 125.828125 -0.484375 131.65625 3.105469 135.246094 L 11.46875 143.605469 " fill-opacity="1" fill-rule="nonzero"/></g></g><g clip-path="url(#4a01a87a4c)"><g clip-path="url(#0cfce851cc)"><path fill="#ffffff" d="M 123.644531 27.746094 C 124.742188 26.648438 126.117188 25.917969 127.640625 25.613281 L 133.96875 24.351562 C 134.871094 24.167969 135.6875 23.589844 136.183594 22.773438 L 146.152344 6.136719 C 146.242188 5.984375 146.222656 5.820312 146.109375 5.699219 L 141.015625 0.601562 C 140.894531 0.492188 140.730469 0.472656 140.585938 0.550781 L 123.898438 10.539062 C 123.125 11.027344 122.546875 11.839844 122.363281 12.765625 L 121.101562 19.074219 C 120.796875 20.597656 120.0625 21.972656 118.964844 23.070312 L 69.703125 72.332031 L 74.378906 77.011719 L 123.644531 27.746094 " fill-opacity="1" fill-rule="nonzero"/></g></g><g clip-path="url(#ce34526e83)"><path fill="#ffffff" d="M 9.667969 125.238281 L 36.304688 98.601562 C 37.3125 97.601562 38.929688 97.601562 39.914062 98.601562 C 40.914062 99.597656 40.914062 101.214844 39.914062 102.210938 L 13.277344 128.851562 C 12.78125 129.347656 12.132812 129.597656 11.472656 129.597656 C 10.824219 129.597656 10.164062 129.347656 9.667969 128.851562 C 8.667969 127.851562 8.667969 126.234375 9.667969 125.238281 Z M 44.503906 106.800781 C 45.503906 105.804688 47.117188 105.804688 48.117188 106.800781 C 49.113281 107.789062 49.113281 109.40625 48.117188 110.414062 L 21.480469 137.050781 C 20.980469 137.550781 20.320312 137.796875 19.671875 137.796875 C 19.015625 137.796875 18.367188 137.550781 17.867188 137.050781 C 16.871094 136.050781 16.871094 134.4375 17.867188 133.4375 Z M 11.242188 143.675781 C 14.765625 147.195312 20.480469 147.195312 24.003906 143.675781 L 57.074219 110.644531 C 57.195312 110.503906 57.105469 110.222656 57.015625 110.085938 C 54.519531 105.703125 55.269531 100.15625 58.832031 96.566406 C 62.402344 92.984375 67.960938 92.234375 72.359375 94.71875 C 72.597656 94.839844 72.828125 94.851562 72.898438 94.789062 L 77.308594 90.402344 C 77.425781 90.28125 77.425781 90.042969 77.296875 89.902344 L 56.816406 69.421875 C 56.675781 69.289062 56.4375 69.289062 56.308594 69.421875 L 51.96875 73.789062 C 51.867188 73.890625 51.878906 74.128906 52.007812 74.359375 C 54.480469 78.75 53.734375 84.304688 50.160156 87.875 C 46.558594 91.449219 41.011719 92.195312 36.664062 89.710938 C 36.554688 89.652344 36.414062 89.59375 36.273438 89.59375 C 36.195312 89.59375 36.113281 89.613281 36.054688 89.671875 L 3.042969 122.714844 C -0.480469 126.234375 -0.480469 131.953125 3.042969 135.472656 L 11.242188 143.675781 " fill-opacity="1" fill-rule="nonzero"/></g></g></g><g clip-path="url(#065641b97e)"><g transform="matrix(1, 0, 0, 1, 297, 13)"><g clip-path="url(#f137a3c22f)"><g clip-path="url(#704b3827cf)"><path fill="#ffffff" d="M -54.078125 131.71875 L -27.9375 105.578125 C -26.957031 104.589844 -26.957031 103.003906 -27.9375 102.035156 C -28.914062 101.054688 -30.5 101.054688 -31.480469 102.035156 L -57.621094 128.175781 C -58.109375 128.664062 -58.355469 129.300781 -58.355469 129.945312 C -58.355469 130.582031 -58.109375 131.230469 -57.621094 131.71875 C -56.640625 132.699219 -55.054688 132.699219 -54.078125 131.71875 Z M -35.984375 97.53125 C -35.003906 96.550781 -35.003906 94.964844 -35.984375 93.984375 C -36.953125 93.007812 -38.539062 93.007812 -39.527344 93.984375 L -65.667969 120.128906 C -66.160156 120.617188 -66.402344 121.261719 -66.402344 121.898438 C -66.402344 122.546875 -66.160156 123.183594 -65.667969 123.671875 C -64.691406 124.648438 -63.105469 124.648438 -62.125 123.671875 Z M -72.171875 130.171875 C -75.625 126.714844 -75.625 121.105469 -72.171875 117.648438 L -39.753906 85.195312 C -39.617188 85.074219 -39.34375 85.164062 -39.203125 85.253906 C -34.90625 87.699219 -29.464844 86.964844 -25.9375 83.46875 C -22.421875 79.964844 -21.6875 74.511719 -24.128906 70.195312 C -24.246094 69.957031 -24.253906 69.734375 -24.195312 69.664062 L -19.886719 65.335938 C -19.769531 65.21875 -19.535156 65.21875 -19.398438 65.347656 L 0.703125 85.449219 C 0.828125 85.585938 0.828125 85.820312 0.703125 85.949219 L -3.585938 90.207031 C -3.683594 90.304688 -3.917969 90.292969 -4.144531 90.167969 C -8.453125 87.738281 -13.90625 88.472656 -17.410156 91.976562 C -20.914062 95.511719 -21.648438 100.957031 -19.210938 105.226562 C -19.152344 105.332031 -19.09375 105.46875 -19.09375 105.605469 C -19.09375 105.6875 -19.113281 105.765625 -19.171875 105.824219 L -51.601562 138.21875 C -55.054688 141.675781 -60.667969 141.675781 -64.121094 138.21875 L -72.171875 130.171875 " fill-opacity="1" fill-rule="nonzero"/></g><g clip-path="url(#63a3a80905)"><path fill="#ffffff" d="M 39.367188 22.179688 C 40.421875 21.121094 41.128906 19.800781 41.421875 18.332031 L 42.636719 12.242188 C 42.8125 11.371094 43.371094 10.585938 44.152344 10.109375 L 60.171875 0.511719 C 60.320312 0.425781 60.476562 0.445312 60.59375 0.550781 L 65.496094 5.457031 C 65.605469 5.574219 65.625 5.730469 65.546875 5.867188 L 55.933594 21.933594 C 55.460938 22.679688 54.679688 23.238281 53.789062 23.414062 L 47.71875 24.628906 C 46.25 24.921875 44.925781 25.625 43.871094 26.683594 L -3.558594 74.109375 L -8.058594 69.605469 L 39.367188 22.179688 " fill-opacity="1" fill-rule="nonzero"/></g></g></g></g><g clip-path="url(#3325877778)"><g transform="matrix(1, 0, 0, 1, 14, 13)"><g clip-path="url(#84be21e087)"><g clip-path="url(#e642cb485f)"><path fill="#ffffff" d="M 132.3125 119.878906 L 106.167969 93.734375 C 105.179688 92.757812 103.59375 92.757812 102.625 93.734375 C 101.644531 94.714844 101.644531 96.300781 102.625 97.28125 L 128.765625 123.421875 C 129.257812 123.910156 129.890625 124.15625 130.539062 124.15625 C 131.175781 124.15625 131.820312 123.910156 132.3125 123.421875 C 133.289062 122.441406 133.289062 120.855469 132.3125 119.878906 Z M 98.121094 101.785156 C 97.140625 100.804688 95.554688 100.804688 94.578125 101.785156 C 93.597656 102.753906 93.597656 104.339844 94.578125 105.328125 L 120.71875 131.46875 C 121.207031 131.957031 121.855469 132.203125 122.492188 132.203125 C 123.136719 132.203125 123.773438 131.957031 124.261719 131.46875 C 125.242188 130.492188 125.242188 128.902344 124.261719 127.925781 Z M 130.765625 137.96875 C 127.308594 141.425781 121.699219 141.425781 118.242188 137.96875 L 85.785156 105.554688 C 85.667969 105.417969 85.753906 105.140625 85.84375 105.003906 C 88.292969 100.707031 87.558594 95.261719 84.0625 91.738281 C 80.558594 88.222656 75.101562 87.488281 70.785156 89.925781 C 70.550781 90.042969 70.324219 90.054688 70.257812 89.996094 L 65.929688 85.6875 C 65.8125 85.570312 65.8125 85.335938 65.9375 85.199219 L 86.039062 65.097656 C 86.175781 64.96875 86.410156 64.96875 86.539062 65.097656 L 90.796875 69.386719 C 90.894531 69.484375 90.886719 69.71875 90.757812 69.945312 C 88.332031 74.253906 89.066406 79.707031 92.570312 83.210938 C 96.105469 86.714844 101.546875 87.449219 105.816406 85.011719 C 105.925781 84.953125 106.0625 84.894531 106.199219 84.894531 C 106.277344 84.894531 106.355469 84.914062 106.414062 84.972656 L 138.8125 117.398438 C 142.269531 120.855469 142.269531 126.464844 138.8125 129.921875 L 130.765625 137.96875 " fill-opacity="1" fill-rule="nonzero"/></g><g clip-path="url(#eddb7b11c3)"><path fill="#ffffff" d="M 22.773438 26.433594 C 21.714844 25.375 20.390625 24.671875 18.921875 24.378906 L 12.832031 23.164062 C 11.960938 22.988281 11.179688 22.429688 10.699219 21.644531 L 1.105469 5.628906 C 1.015625 5.480469 1.035156 5.324219 1.144531 5.207031 L 6.050781 0.300781 C 6.167969 0.195312 6.324219 0.175781 6.460938 0.253906 L 22.527344 9.867188 C 23.269531 10.335938 23.828125 11.121094 24.003906 12.011719 L 25.21875 18.082031 C 25.511719 19.550781 26.21875 20.871094 27.273438 21.929688 L 74.703125 69.355469 L 70.199219 73.859375 L 22.773438 26.433594 " fill-opacity="1" fill-rule="nonzero"/></g></g></g></g><g clip-path="url(#6a469755ad)"><g clip-path="url(#c4da78ff18)"><g clip-path="url(#eeb0f9bcb6)"><g clip-path="url(#364d71f552)"><path fill="#ffffff" d="M 80.609375 114.359375 C 84.292969 116.628906 88.027344 122.25 87.261719 127.964844 C 85.734375 139.390625 64.078125 144 61.210938 155.652344 C 60.179688 159.851562 61.09375 164.78125 64.488281 167.460938 C 67.03125 169.46875 70.441406 169.9375 73.675781 170.039062 C 76.910156 170.144531 80.160156 170.175781 83.308594 170.941406 C 87.097656 171.867188 89.449219 174.183594 89.703125 177.410156 C 90.003906 181.289062 86.476562 184.546875 84.308594 187.773438 C 80.652344 193.207031 77.320312 199.804688 83.214844 206.464844 C 76.574219 203.40625 73.910156 196.40625 78.628906 186.5625 C 79.660156 184.414062 80.957031 182.46875 80.40625 180.472656 C 79.710938 177.933594 76.609375 177.28125 73.976562 177.386719 C 64.878906 177.757812 58.417969 176.320312 54.277344 171.863281 C 46.855469 163.871094 48.789062 152.167969 54.765625 145.996094 C 63.386719 137.09375 75.78125 136.597656 82.761719 128.707031 C 86.554688 124.417969 83.804688 118.054688 80.609375 114.359375 " fill-opacity="1" fill-rule="nonzero"/></g></g></g></g><g clip-path="url(#ba7d383d93)"><g clip-path="url(#72810a3e86)"><g clip-path="url(#078619cf9b)"><path fill="#ffffff" d="M 77.660156 182.804688 C 77.851562 183.628906 77.710938 184.734375 77.574219 185.316406 C 78.304688 184.09375 78.933594 182.597656 78.449219 181.238281 C 77.6875 179.109375 75.253906 179.140625 71.476562 179.203125 C 62.375 179.351562 55.917969 178.136719 51.777344 173.675781 C 47.125 168.667969 46.148438 162.203125 47.539062 156.550781 C 45.175781 162.648438 46.09375 169.386719 51.144531 174.828125 C 55.285156 179.285156 61.972656 181 71.070312 180.632812 C 73.699219 180.523438 77.066406 180.300781 77.660156 182.804688 " fill-opacity="1" fill-rule="nonzero"/></g></g></g><g clip-path="url(#d75ea9d53b)"><g clip-path="url(#2a798ad397)"><g clip-path="url(#96f0360f9b)"><g clip-path="url(#d85b14980c)"><path fill="#ffffff" d="M 88.394531 132.191406 C 87.082031 142.019531 68.175781 146.207031 65.710938 156.226562 C 64.820312 159.839844 65.890625 163.855469 68.808594 166.160156 C 70.511719 167.503906 72.671875 168.046875 74.859375 168.261719 C 73.15625 167.996094 71.449219 167.144531 70.105469 166.089844 C 67.339844 163.902344 66.660156 160.195312 67.503906 156.769531 C 69.839844 147.269531 87.523438 143.328125 88.769531 134.007812 C 88.949219 132.667969 88.800781 131.511719 88.460938 130.246094 C 88.5 130.886719 88.480469 131.539062 88.394531 132.191406 " fill-opacity="1" fill-rule="nonzero"/></g></g></g></g><g clip-path="url(#8dc015368b)"><path fill="#ffffff" d="M 242.78125 81.679688 C 242.859375 82.402344 243 83.109375 243.199219 83.808594 C 243.398438 84.503906 243.652344 85.179688 243.964844 85.832031 C 244.28125 86.484375 244.644531 87.109375 245.066406 87.699219 C 245.484375 88.292969 245.949219 88.84375 246.460938 89.355469 C 246.972656 89.867188 247.527344 90.332031 248.117188 90.753906 C 248.710938 91.171875 249.332031 91.539062 249.984375 91.851562 C 250.636719 92.164062 251.3125 92.421875 252.011719 92.621094 C 252.707031 92.816406 253.417969 92.957031 254.136719 93.035156 C 257.621094 93.417969 262.121094 93.664062 267.929688 93.664062 C 262.121094 93.664062 257.621094 93.910156 254.136719 94.292969 C 253.417969 94.371094 252.707031 94.511719 252.011719 94.710938 C 251.3125 94.90625 250.636719 95.164062 249.984375 95.476562 C 249.332031 95.789062 248.710938 96.15625 248.117188 96.574219 C 247.527344 96.996094 246.972656 97.460938 246.460938 97.972656 C 245.949219 98.484375 245.484375 99.039062 245.066406 99.628906 C 244.644531 100.21875 244.28125 100.84375 243.964844 101.496094 C 243.652344 102.148438 243.398438 102.824219 243.199219 103.523438 C 243 104.21875 242.859375 104.925781 242.78125 105.648438 C 242.398438 109.132812 242.152344 113.632812 242.152344 119.441406 C 242.152344 113.632812 241.90625 109.132812 241.523438 105.648438 C 241.445312 104.925781 241.308594 104.21875 241.109375 103.523438 C 240.910156 102.824219 240.652344 102.148438 240.339844 101.496094 C 240.027344 100.84375 239.660156 100.21875 239.242188 99.628906 C 238.824219 99.039062 238.355469 98.484375 237.84375 97.972656 C 237.332031 97.460938 236.78125 96.996094 236.1875 96.574219 C 235.597656 96.15625 234.976562 95.789062 234.320312 95.476562 C 233.667969 95.164062 232.992188 94.90625 232.296875 94.710938 C 231.597656 94.511719 230.890625 94.371094 230.167969 94.292969 C 226.683594 93.910156 222.183594 93.664062 216.375 93.664062 C 222.183594 93.664062 226.683594 93.417969 230.167969 93.035156 C 230.890625 92.957031 231.597656 92.816406 232.296875 92.621094 C 232.992188 92.421875 233.667969 92.164062 234.320312 91.851562 C 234.976562 91.539062 235.597656 91.171875 236.1875 90.753906 C 236.78125 90.332031 237.332031 89.867188 237.84375 89.355469 C 238.355469 88.84375 238.824219 88.292969 239.242188 87.699219 C 239.660156 87.109375 240.027344 86.484375 240.339844 85.832031 C 240.652344 85.179688 240.910156 84.503906 241.109375 83.808594 C 241.308594 83.109375 241.445312 82.402344 241.523438 81.679688 C 241.90625 78.195312 242.152344 73.695312 242.152344 67.886719 C 242.152344 73.695312 242.398438 78.195312 242.78125 81.679688 Z M 242.78125 81.679688 " fill-opacity="1" fill-rule="nonzero"/></g><g clip-path="url(#38ab83bae8)"><path fill="#ffffff" d="M 306.335938 149.738281 C 306.414062 150.460938 306.554688 151.167969 306.75 151.867188 C 306.949219 152.5625 307.207031 153.238281 307.519531 153.890625 C 307.832031 154.542969 308.199219 155.167969 308.617188 155.757812 C 309.035156 156.351562 309.503906 156.902344 310.015625 157.414062 C 310.527344 157.925781 311.078125 158.394531 311.671875 158.8125 C 312.261719 159.230469 312.886719 159.597656 313.539062 159.910156 C 314.191406 160.222656 314.867188 160.480469 315.5625 160.679688 C 316.261719 160.878906 316.96875 161.015625 317.691406 161.09375 C 321.175781 161.476562 325.675781 161.722656 331.484375 161.722656 C 325.675781 161.722656 321.175781 161.96875 317.691406 162.351562 C 316.96875 162.429688 316.261719 162.570312 315.5625 162.769531 C 314.867188 162.96875 314.191406 163.222656 313.539062 163.535156 C 312.886719 163.851562 312.261719 164.214844 311.671875 164.632812 C 311.078125 165.054688 310.527344 165.519531 310.015625 166.03125 C 309.503906 166.542969 309.035156 167.097656 308.617188 167.6875 C 308.199219 168.277344 307.832031 168.902344 307.519531 169.554688 C 307.207031 170.207031 306.949219 170.882812 306.75 171.582031 C 306.554688 172.277344 306.414062 172.984375 306.335938 173.707031 C 305.953125 177.191406 305.707031 181.691406 305.707031 187.5 C 305.707031 181.691406 305.460938 177.191406 305.078125 173.707031 C 305 172.984375 304.859375 172.277344 304.660156 171.582031 C 304.464844 170.882812 304.207031 170.207031 303.894531 169.554688 C 303.582031 168.902344 303.214844 168.277344 302.796875 167.6875 C 302.375 167.097656 301.910156 166.542969 301.398438 166.03125 C 300.886719 165.519531 300.332031 165.054688 299.742188 164.632812 C 299.152344 164.214844 298.527344 163.851562 297.875 163.535156 C 297.222656 163.222656 296.546875 162.96875 295.847656 162.769531 C 295.152344 162.570312 294.445312 162.429688 293.722656 162.351562 C 290.238281 161.96875 285.738281 161.722656 279.929688 161.722656 C 285.738281 161.722656 290.238281 161.476562 293.722656 161.09375 C 294.445312 161.015625 295.152344 160.878906 295.847656 160.679688 C 296.546875 160.480469 297.222656 160.222656 297.875 159.910156 C 298.527344 159.597656 299.152344 159.230469 299.742188 158.8125 C 300.332031 158.394531 300.886719 157.925781 301.398438 157.414062 C 301.910156 156.902344 302.375 156.351562 302.796875 155.757812 C 303.214844 155.167969 303.582031 154.542969 303.894531 153.890625 C 304.207031 153.238281 304.460938 152.5625 304.660156 151.867188 C 304.859375 151.167969 305 150.460938 305.078125 149.738281 C 305.460938 146.253906 305.707031 141.753906 305.707031 135.945312 C 305.707031 141.753906 305.953125 146.253906 306.335938 149.738281 Z M 306.335938 149.738281 " fill-opacity="1" fill-rule="nonzero"/></g><g fill="#ffffff" fill-opacity="1"><g transform="translate(157.478413, 71.760699)"><g><path d="M 17.8125 -11.734375 C 18.21875 -8.679688 17.769531 -6.238281 16.46875 -4.40625 C 15.175781 -2.570312 13.117188 -1.46875 10.296875 -1.09375 C 7.484375 -0.726562 5.210938 -1.265625 3.484375 -2.703125 C 1.753906 -4.140625 0.6875 -6.394531 0.28125 -9.46875 C -0.125 -12.53125 0.320312 -14.96875 1.625 -16.78125 C 2.9375 -18.601562 5.007812 -19.703125 7.84375 -20.078125 C 10.675781 -20.441406 12.945312 -19.90625 14.65625 -18.46875 C 16.363281 -17.03125 17.414062 -14.785156 17.8125 -11.734375 Z M 4.375 -9.96875 C 4.644531 -7.914062 5.238281 -6.414062 6.15625 -5.46875 C 7.082031 -4.53125 8.320312 -4.160156 9.875 -4.359375 C 13 -4.773438 14.285156 -7.054688 13.734375 -11.203125 C 13.191406 -15.347656 11.367188 -17.21875 8.265625 -16.8125 C 6.710938 -16.601562 5.609375 -15.925781 4.953125 -14.78125 C 4.296875 -13.632812 4.101562 -12.03125 4.375 -9.96875 Z M 4.375 -9.96875 "/></g></g></g><g fill="#ffffff" fill-opacity="1"><g transform="translate(179.761079, 69.041216)"><g><path d="M 2.21875 -18.59375 L 8 -18.625 C 10.632812 -18.644531 12.546875 -18.28125 13.734375 -17.53125 C 14.929688 -16.789062 15.535156 -15.601562 15.546875 -13.96875 C 15.554688 -12.863281 15.300781 -11.953125 14.78125 -11.234375 C 14.269531 -10.523438 13.582031 -10.09375 12.71875 -9.9375 L 12.71875 -9.8125 C 13.894531 -9.5625 14.742188 -9.078125 15.265625 -8.359375 C 15.796875 -7.648438 16.066406 -6.695312 16.078125 -5.5 C 16.085938 -3.800781 15.484375 -2.472656 14.265625 -1.515625 C 13.046875 -0.554688 11.390625 -0.0703125 9.296875 -0.0625 L 2.34375 -0.015625 Z M 6.203125 -11.265625 L 8.484375 -11.28125 C 9.554688 -11.28125 10.332031 -11.445312 10.8125 -11.78125 C 11.289062 -12.125 11.53125 -12.675781 11.53125 -13.4375 C 11.519531 -14.144531 11.253906 -14.648438 10.734375 -14.953125 C 10.210938 -15.265625 9.382812 -15.414062 8.25 -15.40625 L 6.1875 -15.40625 Z M 6.234375 -8.140625 L 6.265625 -3.296875 L 8.828125 -3.3125 C 9.910156 -3.3125 10.707031 -3.519531 11.21875 -3.9375 C 11.738281 -4.363281 12 -5.003906 12 -5.859375 C 11.988281 -7.398438 10.878906 -8.164062 8.671875 -8.15625 Z M 6.234375 -8.140625 "/></g></g></g><g fill="#ffffff" fill-opacity="1"><g transform="translate(199.27875, 69.208387)"><g><path d="M 2.328125 0.203125 L 3.875 -18.3125 L 7.8125 -17.984375 L 6.265625 0.53125 Z M 2.328125 0.203125 "/></g></g></g><g fill="#ffffff" fill-opacity="1"><g transform="translate(115.109221, 302.080775)"><g><path d="M 8.265625 4.671875 L 4.84375 2.734375 L 12.375 -10.578125 L 7.984375 -13.0625 L 9.59375 -15.921875 L 21.8125 -9.015625 L 20.203125 -6.15625 L 15.796875 -8.640625 Z M 8.265625 4.671875 "/></g></g></g><g fill="#ffffff" fill-opacity="1"><g transform="translate(129.246886, 310.001179)"><g><path d="M 11.796875 -7.8125 C 11.035156 -8.125 10.335938 -8.128906 9.703125 -7.828125 C 9.066406 -7.523438 8.539062 -6.941406 8.125 -6.078125 L 13.15625 -4.015625 C 13.5 -4.898438 13.546875 -5.671875 13.296875 -6.328125 C 13.054688 -6.992188 12.554688 -7.488281 11.796875 -7.8125 Z M 7.734375 3.46875 C 5.617188 2.59375 4.203125 1.328125 3.484375 -0.328125 C 2.773438 -1.984375 2.863281 -3.878906 3.75 -6.015625 C 4.65625 -8.222656 5.90625 -9.703125 7.5 -10.453125 C 9.101562 -11.203125 10.878906 -11.175781 12.828125 -10.375 C 14.679688 -9.613281 15.90625 -8.488281 16.5 -7 C 17.101562 -5.507812 17.019531 -3.832031 16.25 -1.96875 L 15.53125 -0.234375 L 7.046875 -3.734375 C 6.671875 -2.691406 6.644531 -1.765625 6.96875 -0.953125 C 7.289062 -0.148438 7.960938 0.457031 8.984375 0.875 C 9.773438 1.195312 10.554688 1.414062 11.328125 1.53125 C 12.109375 1.65625 12.957031 1.703125 13.875 1.671875 L 12.71875 4.453125 C 11.96875 4.503906 11.203125 4.457031 10.421875 4.3125 C 9.648438 4.164062 8.753906 3.882812 7.734375 3.46875 Z M 7.734375 3.46875 "/></g></g></g><g fill="#ffffff" fill-opacity="1"><g transform="translate(144.488585, 316.16356)"><g><path d="M 7.4375 2.359375 C 3.1875 1.148438 1.71875 -1.785156 3.03125 -6.453125 C 3.695312 -8.773438 4.78125 -10.382812 6.28125 -11.28125 C 7.78125 -12.1875 9.609375 -12.332031 11.765625 -11.71875 C 13.347656 -11.269531 14.6875 -10.554688 15.78125 -9.578125 L 13.84375 -7.015625 C 13.332031 -7.410156 12.84375 -7.753906 12.375 -8.046875 C 11.90625 -8.335938 11.414062 -8.554688 10.90625 -8.703125 C 8.976562 -9.253906 7.628906 -8.148438 6.859375 -5.390625 C 6.097656 -2.722656 6.679688 -1.113281 8.609375 -0.5625 C 9.335938 -0.363281 10.035156 -0.269531 10.703125 -0.28125 C 11.367188 -0.300781 12.066406 -0.429688 12.796875 -0.671875 L 11.890625 2.53125 C 11.179688 2.738281 10.5 2.828125 9.84375 2.796875 C 9.1875 2.765625 8.382812 2.617188 7.4375 2.359375 Z M 7.4375 2.359375 "/></g></g></g><g fill="#ffffff" fill-opacity="1"><g transform="translate(158.452201, 320.156968)"><g><path d="M 14.984375 2.296875 L 11.15625 1.71875 L 12.421875 -6.484375 C 12.734375 -8.515625 12.128906 -9.648438 10.609375 -9.890625 C 9.546875 -10.046875 8.71875 -9.796875 8.125 -9.140625 C 7.53125 -8.492188 7.109375 -7.351562 6.859375 -5.71875 L 5.84375 0.890625 L 2 0.3125 L 5 -19.234375 L 8.84375 -18.65625 L 8.234375 -14.671875 C 8.191406 -14.367188 8.054688 -13.640625 7.828125 -12.484375 L 7.546875 -11.375 L 7.75 -11.34375 C 8.820312 -12.59375 10.285156 -13.070312 12.140625 -12.78125 C 13.796875 -12.53125 14.984375 -11.894531 15.703125 -10.875 C 16.421875 -9.851562 16.648438 -8.515625 16.390625 -6.859375 Z M 14.984375 2.296875 "/></g></g></g><g fill="#ffffff" fill-opacity="1"><g transform="translate(176.261175, 322.600548)"><g/></g></g><g fill="#ffffff" fill-opacity="1"><g transform="translate(183.568052, 323.019211)"><g><path d="M 0.75 -5.390625 L 0.734375 -8.5625 L 7.546875 -8.59375 L 7.5625 -5.421875 Z M 0.75 -5.390625 "/></g></g></g><g fill="#ffffff" fill-opacity="1"><g transform="translate(192.497734, 322.934357)"><g/></g></g><g fill="#ffffff" fill-opacity="1"><g transform="translate(199.981376, 322.534345)"><g><path d="M 11.21875 -5.90625 C 11.425781 -4.46875 11.082031 -3.296875 10.1875 -2.390625 C 9.289062 -1.492188 7.847656 -0.898438 5.859375 -0.609375 C 4.828125 -0.453125 3.941406 -0.390625 3.203125 -0.421875 C 2.460938 -0.460938 1.757812 -0.570312 1.09375 -0.75 L 0.625 -3.90625 C 1.394531 -3.675781 2.242188 -3.507812 3.171875 -3.40625 C 4.097656 -3.3125 4.898438 -3.316406 5.578125 -3.421875 C 6.972656 -3.617188 7.613281 -4.117188 7.5 -4.921875 C 7.445312 -5.234375 7.3125 -5.46875 7.09375 -5.625 C 6.882812 -5.789062 6.535156 -5.957031 6.046875 -6.125 C 5.566406 -6.289062 4.925781 -6.484375 4.125 -6.703125 C 2.976562 -6.992188 2.125 -7.296875 1.5625 -7.609375 C 1 -7.921875 0.5625 -8.3125 0.25 -8.78125 C -0.0507812 -9.25 -0.253906 -9.847656 -0.359375 -10.578125 C -0.546875 -11.828125 -0.207031 -12.863281 0.65625 -13.6875 C 1.53125 -14.507812 2.851562 -15.050781 4.625 -15.3125 C 6.332031 -15.5625 8.035156 -15.429688 9.734375 -14.921875 L 8.984375 -11.984375 C 8.242188 -12.191406 7.550781 -12.34375 6.90625 -12.4375 C 6.257812 -12.539062 5.613281 -12.546875 4.96875 -12.453125 C 3.84375 -12.285156 3.328125 -11.894531 3.421875 -11.28125 C 3.472656 -10.9375 3.695312 -10.664062 4.09375 -10.46875 C 4.5 -10.28125 5.359375 -10.023438 6.671875 -9.703125 C 7.816406 -9.429688 8.671875 -9.132812 9.234375 -8.8125 C 9.804688 -8.5 10.253906 -8.109375 10.578125 -7.640625 C 10.898438 -7.179688 11.113281 -6.601562 11.21875 -5.90625 Z M 11.21875 -5.90625 "/></g></g></g><g fill="#ffffff" fill-opacity="1"><g transform="translate(213.903326, 320.555372)"><g><path d="M 14.625 -4 L 10.875 -2.96875 L 8.6875 -10.96875 C 8.144531 -12.945312 7.140625 -13.734375 5.671875 -13.328125 C 4.617188 -13.046875 3.957031 -12.488281 3.6875 -11.65625 C 3.414062 -10.820312 3.5 -9.609375 3.9375 -8.015625 L 5.703125 -1.5625 L 1.953125 -0.53125 L -3.25 -19.609375 L 0.5 -20.640625 L 1.546875 -16.75 C 1.628906 -16.445312 1.800781 -15.722656 2.0625 -14.578125 L 2.265625 -13.46875 L 2.46875 -13.515625 C 2.9375 -15.085938 4.070312 -16.117188 5.875 -16.609375 C 7.5 -17.054688 8.84375 -16.957031 9.90625 -16.3125 C 10.976562 -15.675781 11.738281 -14.550781 12.1875 -12.9375 Z M 14.625 -4 "/></g></g></g><g fill="#ffffff" fill-opacity="1"><g transform="translate(231.54797, 315.604364)"><g><path d="M 10.1875 -4.296875 L 8.75 -5.78125 L 8.65625 -5.75 C 8.382812 -4.738281 7.988281 -3.953125 7.46875 -3.390625 C 6.945312 -2.828125 6.171875 -2.328125 5.140625 -1.890625 C 3.890625 -1.359375 2.753906 -1.300781 1.734375 -1.71875 C 0.710938 -2.132812 -0.078125 -3.007812 -0.640625 -4.34375 C -1.222656 -5.726562 -1.164062 -6.953125 -0.46875 -8.015625 C 0.226562 -9.085938 1.539062 -10.070312 3.46875 -10.96875 L 5.703125 -12.015625 L 5.46875 -12.578125 C 4.90625 -13.910156 3.941406 -14.289062 2.578125 -13.71875 C 1.535156 -13.269531 0.441406 -12.429688 -0.703125 -11.203125 L -2.90625 -13.125 C -1.738281 -14.539062 -0.238281 -15.632812 1.59375 -16.40625 C 3.351562 -17.15625 4.863281 -17.34375 6.125 -16.96875 C 7.382812 -16.601562 8.347656 -15.632812 9.015625 -14.0625 L 12.6875 -5.34375 Z M 6.578125 -9.921875 L 5.234375 -9.28125 C 4.191406 -8.8125 3.488281 -8.296875 3.125 -7.734375 C 2.769531 -7.179688 2.738281 -6.554688 3.03125 -5.859375 C 3.457031 -4.847656 4.25 -4.585938 5.40625 -5.078125 C 6.226562 -5.421875 6.785156 -5.9375 7.078125 -6.625 C 7.378906 -7.3125 7.363281 -8.054688 7.03125 -8.859375 Z M 6.578125 -9.921875 "/></g></g></g><g fill="#ffffff" fill-opacity="1"><g transform="translate(246.904131, 308.953034)"><g><path d="M 1.625 -17.515625 C 2.070312 -17.765625 2.472656 -17.941406 2.828125 -18.046875 L 4.34375 -14.734375 C 4.03125 -14.660156 3.679688 -14.515625 3.296875 -14.296875 C 2.210938 -13.691406 1.519531 -12.941406 1.21875 -12.046875 C 0.925781 -11.148438 1.0625 -10.203125 1.625 -9.203125 L 5.15625 -2.890625 L 1.765625 -0.984375 L -5.171875 -13.375 L -2.59375 -14.8125 L -0.9375 -13.03125 L -0.78125 -13.125 C -0.78125 -14.03125 -0.570312 -14.878906 -0.15625 -15.671875 C 0.257812 -16.460938 0.851562 -17.078125 1.625 -17.515625 Z M 1.625 -17.515625 "/></g></g></g><g fill="#ffffff" fill-opacity="1"><g transform="translate(258.123293, 302.721907)"><g><path d="M -0.359375 -14.140625 C -1.035156 -13.660156 -1.410156 -13.070312 -1.484375 -12.375 C -1.566406 -11.675781 -1.351562 -10.921875 -0.84375 -10.109375 L 3.59375 -13.265625 C 3.007812 -14.035156 2.367188 -14.488281 1.671875 -14.625 C 0.984375 -14.769531 0.304688 -14.609375 -0.359375 -14.140625 Z M 7.03125 -4.71875 C 5.164062 -3.382812 3.34375 -2.859375 1.5625 -3.140625 C -0.207031 -3.421875 -1.765625 -4.503906 -3.109375 -6.390625 C -4.492188 -8.328125 -5.078125 -10.171875 -4.859375 -11.921875 C -4.648438 -13.671875 -3.691406 -15.15625 -1.984375 -16.375 C -0.347656 -17.539062 1.253906 -17.976562 2.828125 -17.6875 C 4.398438 -17.40625 5.773438 -16.445312 6.953125 -14.8125 L 8.046875 -13.28125 L 0.578125 -7.953125 C 1.253906 -7.085938 2.019531 -6.578125 2.875 -6.421875 C 3.726562 -6.273438 4.601562 -6.519531 5.5 -7.15625 C 6.195312 -7.65625 6.804688 -8.195312 7.328125 -8.78125 C 7.847656 -9.375 8.332031 -10.066406 8.78125 -10.859375 L 10.515625 -8.421875 C 10.160156 -7.742188 9.710938 -7.113281 9.171875 -6.53125 C 8.640625 -5.957031 7.925781 -5.351562 7.03125 -4.71875 Z M 7.03125 -4.71875 "/></g></g></g></svg>